<svg width="75" height="125" viewBox="0 0 75 125" fill="none" xmlns="http://www.w3.org/2000/svg">
<path fill-rule="evenodd" clip-rule="evenodd" d="M58.9375 97.459V101.562H66.7502C68.9074 101.562 70.6562 99.8244 70.6562 97.682V31.25H55.0231C50.7129 31.25 47.2188 27.7869 47.2188 23.4144V3.90625H8.13898C5.99115 3.90625 4.25 5.68462 4.25 7.79475V97.674C4.25 99.8216 6.02621 101.562 8.15609 101.562H39.4062V97.459C36.9899 94.9931 35.5 91.6158 35.5 87.8906C35.5 80.3399 41.6211 74.2188 49.1719 74.2188C56.7226 74.2188 62.8438 80.3399 62.8438 87.8906C62.8438 91.6158 61.3539 94.9931 58.9375 97.459ZM43.3125 100.247V115.625L49.1719 109.766L55.0312 115.625V100.247C53.2554 101.09 51.2687 101.562 49.1719 101.562C47.075 101.562 45.0884 101.09 43.3125 100.247ZM58.9375 105.469H66.7601C71.0692 105.469 74.5625 101.96 74.5625 97.6922V27.3438L51.125 0H8.16703C3.84635 0 0.34375 3.50913 0.34375 7.84113V97.6276C0.34375 101.958 3.82393 105.469 8.14618 105.469H39.4062V125L49.1719 115.234L58.9375 125V105.469ZM51.125 5.85938V23.4032C51.125 25.5795 52.8854 27.3438 55.0185 27.3438H69.4842L51.125 5.85938ZM12.0625 27.3438V31.25H39.4062V27.3438H12.0625ZM12.0625 15.625V19.5312H39.4062V15.625H12.0625ZM12.0625 39.0625V42.9688H62.8438V39.0625H12.0625ZM12.0625 50.7812V54.6875H62.8438V50.7812H12.0625ZM12.0625 62.5V66.4062H62.8438V62.5H12.0625ZM49.1719 97.6562C54.5653 97.6562 58.9375 93.284 58.9375 87.8906C58.9375 82.4972 54.5653 78.125 49.1719 78.125C43.7785 78.125 39.4062 82.4972 39.4062 87.8906C39.4062 93.284 43.7785 97.6562 49.1719 97.6562Z" fill="#B99859"/>
</svg>
