<svg width="30" height="30" viewBox="0 0 30 30" fill="none" xmlns="http://www.w3.org/2000/svg">
<path d="M26.4844 0H3.51562C1.57711 0 0 1.57711 0 3.51562V26.4844C0 28.4229 1.57711 30 3.51562 30H26.4844C28.4229 30 30 28.4229 30 26.4844V3.51562C30 1.57711 28.4229 0 26.4844 0ZM28 26.4844C28 27.1305 27.1305 28 26.4844 28H19.8047V18.1055H23.4252L24.0234 14.4727H19.8047V11.9531C19.8047 10.9585 20.5679 10.1953 21.5625 10.1953H23.9648V6.5625H21.5625C18.5787 6.5625 16.1732 8.97949 16.1732 11.9633V14.4727H12.6562V18.1055H16.1732V28H3.51562C2.86945 28 2 27.1305 2 26.4844V15V3.51562C2 2.86945 2.85383 2 3.5 2H14.9149H26.4844C27.1305 2 28 2.86945 28 3.51562V15V26.4844Z" fill="url(#paint0_linear_1_336)"/>
<defs>
<linearGradient id="paint0_linear_1_336" x1="15" y1="0" x2="15" y2="30" gradientUnits="userSpaceOnUse">
<stop stop-color="#FCE3B4"/>
<stop offset="0.541667" stop-color="#B99859"/>
<stop offset="1" stop-color="#897245"/>
</linearGradient>
</defs>
</svg>
