<svg width="90" height="135" viewBox="0 0 90 135" fill="none" xmlns="http://www.w3.org/2000/svg">
<g clip-path="url(#clip0_14_2)">
<path d="M65.775 6L65.7126 6.0902L65.6504 6.1804L65.5882 6.2706L65.5263 6.3608L65.4645 6.451L65.403 6.5412L65.3419 6.6314L65.2811 6.7216L65.2208 6.81181L65.161 6.90201L65.1018 6.99221L65.0431 7.08241L64.9851 7.17261L64.9279 7.26281L64.8713 7.35301L64.8156 7.44321L64.7608 7.53341L64.7069 7.62361L64.6539 7.71381L64.6019 7.80401L64.551 7.89421L64.5012 7.98441L64.4526 8.07461L64.4051 8.16481L64.3589 8.25501L64.3139 8.34521L64.2703 8.43542L64.228 8.52562L64.1871 8.61582L64.1476 8.70602L64.1096 8.79622L64.0731 8.88642L64.0381 8.97662L64.0047 9.06682L63.9729 9.15702L63.9427 9.24722L63.9142 9.33742L63.8873 9.42762L63.8621 9.51782L63.8387 9.60802L63.817 9.69822L63.797 9.78842L63.7789 9.87862L63.7625 9.96883L63.7479 10.059L63.7352 10.1492L63.7243 10.2394L63.7152 10.3296L63.708 10.4198L63.7027 10.51L63.6992 10.6002L63.6976 10.6904L63.6979 10.7806L63.7 10.8708L63.704 10.961L63.7099 11.0512L63.7176 11.1414L63.7272 11.2316L63.7386 11.3218L63.7518 11.412L63.7669 11.5022L63.7838 11.5924L63.8024 11.6826L63.8229 11.7728L63.8451 11.863L63.869 11.9532L63.8947 12.0434L63.922 12.1336L63.951 12.2238L63.9817 12.314L64.0139 12.4042L64.0478 12.4944L64.0832 12.5846L64.1201 12.6748L64.1585 12.765L64.1984 12.8552L64.2397 12.9454L64.2824 13.0356L64.3264 13.1258L64.3717 13.216L64.4183 13.3062L64.4661 13.3964L64.5151 13.4866L64.5652 13.5768L64.6164 13.667L64.6686 13.7572L64.7219 13.8474L64.7761 13.9377L64.8312 14.0279L64.8871 14.1181L64.9438 14.2083L65.0013 14.2985L65.0595 14.3887L65.1183 14.4789L65.1777 14.5691L65.2377 14.6593L65.2981 14.7495L65.359 14.8397L65.4202 14.9299L65.4818 15.0201L65.5436 15.1103L65.6056 15.2005L65.6678 15.2907L65.7301 15.3809L65.7924 15.4711L65.8547 15.5613L65.917 15.6515L65.9791 15.7417L66.041 15.8319L66.1027 15.9221L66.1641 16.0123L66.2251 16.1025L66.2857 16.1927L66.3459 16.2829L66.4056 16.3731L66.4646 16.4633L66.5231 16.5535L66.5809 16.6437L66.638 16.7339L66.6943 16.8241L66.7497 16.9143L66.8043 17.0045L66.858 17.0947L66.9107 17.1849L66.9624 17.2751L67.013 17.3653L67.0624 17.4555L67.1108 17.5457L67.1579 17.6359L67.2038 17.7261L67.2484 17.8163L67.2916 17.9065L67.3335 17.9967L67.374 18.0869L67.4131 18.1771L67.4507 18.2673L67.4868 18.3575L67.5213 18.4477L67.5543 18.5379L67.5856 18.6281L67.6154 18.7183L67.6434 18.8085L67.6698 18.8987L67.6945 18.9889L67.7175 19.0791L67.7387 19.1693L67.7582 19.2595L67.7758 19.3497L67.7917 19.4399L67.8057 19.5301L67.818 19.6203L67.8283 19.7105L67.8369 19.8007L67.8436 19.8909L67.8484 19.9811L67.8513 20.0713L67.8524 20.1615L67.8516 20.2517L67.849 20.3419L67.8445 20.4321L67.8381 20.5223L67.8298 20.6125L67.8197 20.7027L67.8078 20.7929L67.794 20.8831L67.7785 20.9733L67.7611 21.0635L67.7419 21.1537L67.721 21.2439L67.6983 21.3341L67.6739 21.4243L67.6478 21.5145L67.6199 21.6047L67.5905 21.6949L67.5594 21.7851L67.5266 21.8753L67.4924 21.9655L67.4565 22.0557L67.4192 22.1459L67.3803 22.2361L67.3401 22.3263L67.2984 22.4165L67.2553 22.5067L67.211 22.5969L67.1653 22.6871L67.1183 22.7773L67.0702 22.8675L67.0209 22.9577L66.9705 23.0479L66.919 23.1381L66.8665 23.2283L66.8129 23.3185L66.7585 23.4087L66.7032 23.4989L66.647 23.5891L66.59 23.6793L66.5324 23.7695L66.474 23.8597L66.415 23.9499L66.3554 24.0401L66.2953 24.1303L66.2348 24.2205L66.1738 24.3107L66.1125 24.4009L66.0508 24.4911L65.9889 24.5813L65.9269 24.6715L65.8646 24.7617L65.8023 24.8519L65.74 24.9421L65.6777 25.0323L65.6155 25.1225L65.5535 25.2127L65.4916 25.3029L65.43 25.3931L65.3687 25.4833L65.3078 25.5735L65.2473 25.6637L65.1872 25.7539L65.1277 25.8441L65.0688 25.9343L65.0105 26.0245L64.9529 26.1147L64.8961 26.2049L64.84 26.2951L64.7848 26.3853L64.7304 26.4755L64.6771 26.5657L64.6246 26.6559L64.5733 26.7461L64.523 26.8363L64.4738 26.9265L64.4258 27.0167L64.379 27.1069L64.3335 27.1971L64.2893 27.2873L64.2464 27.3775L64.2049 27.4677L64.1648 27.5579L64.1261 27.6481L64.089 27.7383L64.0533 27.8285L64.0192 27.9187L63.9867 28.0089L63.9558 28.0991L63.9265 28.1893L63.8989 28.2795L63.873 28.3697L63.8488 28.4599L63.8263 28.5501L63.8056 28.6403L63.7866 28.7305L63.7695 28.8207L63.7541 28.9109L63.7406 29.0011L63.7289 29.0913L63.719 29.1815L63.711 29.2717L63.7048 29.3619L63.7005 29.4521L63.6981 29.5424L63.6975 29.6326L63.6988 29.7228L63.702 29.813L63.7071 29.9032L63.714 29.9934L63.7227 30.0836L63.7333 30.1738L63.7458 30.264L63.76 30.3542L63.7761 30.4444L63.794 30.5346L63.8137 30.6248L63.8351 30.715L63.8583 30.8052L63.8832 30.8954L63.9098 30.9856L63.9381 31.0758L63.968 31.166L63.9996 31.2562L64.0327 31.3464L64.0674 31.4366L64.1037 31.5268L64.1415 31.617L64.1807 31.7072L64.2214 31.7974L64.2635 31.8876L64.3069 31.9778L64.3516 32.068L64.3977 32.1582L64.4449 32.2484L64.4934 32.3386L64.543 32.4288L64.5938 32.519L64.6455 32.6092L64.6984 32.6994L64.7521 32.7896L64.8068 32.8798L64.8624 32.97L64.9188 33.0602L64.976 33.1504L65.0338 33.2406L65.0924 33.3308L65.1515 33.421L65.2113 33.5112L65.2715 33.6014L65.3322 33.6916L65.3933 33.7818L65.4547 33.872L65.5164 33.9622L65.5784 34.0524L65.6405 34.1426L65.7027 34.2328L65.765 34.323L65.8273 34.4132L65.8896 34.5034L65.9518 34.5936L66.0138 34.6838L66.0756 34.774L66.1371 34.8642L66.1983 34.9544L66.2591 35.0446L66.3195 35.1348L66.3794 35.225L66.4387 35.3152L66.4975 35.4054L66.5556 35.4956L66.613 35.5858L66.6696 35.676L66.7255 35.7662L66.7805 35.8564L66.8345 35.9466L66.8877 36.0368L66.9398 36.127L66.9908 36.2172L67.0408 36.3074L67.0897 36.3976L67.1373 36.4878L67.1838 36.578L67.2289 36.6682L67.2728 36.7584L67.3153 36.8486L67.3564 36.9388L67.3961 37.029L67.4343 37.1192L67.4711 37.2094L67.5063 37.2996L67.54 37.3898L67.572 37.48L67.6025 37.5702L67.6313 37.6604L67.6584 37.7506L67.6839 37.8408L67.7076 37.931L67.7296 38.0212L67.7498 38.1114L67.7683 38.2016L67.7849 38.2918L67.7998 38.382L67.8128 38.4722L67.824 38.5624L67.8334 38.6526L67.8409 38.7428L67.8465 38.833L67.8503 38.9232L67.8522 39.0134L67.8522 39.1036L67.8504 39.1938L67.8467 39.284L67.8411 39.3742L67.8337 39.4644L67.8244 39.5546L67.8133 39.6448L67.8003 39.735L67.7855 39.8252L67.769 39.9154L67.7506 40.0056L67.7304 40.0958L67.7085 40.186L67.6848 40.2762L67.6594 40.3664L67.6324 40.4566L67.6036 40.5468L67.5732 40.637L67.5412 40.7272L67.5076 40.8174L67.4725 40.9076L67.4358 40.9978L67.3976 41.088L67.3579 41.1782L67.3169 41.2684L67.2744 41.3586L67.2306 41.4488L67.1855 41.539L67.1391 41.6292L67.0915 41.7194L67.0427 41.8096L66.9928 41.8998L66.9417 41.99L66.8897 42.0802L66.8366 42.1704L66.7825 42.2606L66.7276 42.3508L66.6718 42.441L66.6152 42.5312L66.5578 42.6214L66.4997 42.7116L66.441 42.8018L66.3817 42.892L66.3218 42.9822L66.2614 43.0724L66.2006 43.1626L66.1395 43.2528L66.078 43.343L66.0162 43.4332L65.9542 43.5234L65.892 43.6136L65.8297 43.7038L65.7674 43.794L65.7051 43.8842L65.6429 43.9744L65.5807 44.0646L65.5188 44.1548L65.4571 44.245L65.3956 44.3352L65.3345 44.4254L65.2738 44.5156L65.2136 44.6058L65.1538 44.696L65.0946 44.7862L65.0361 44.8764L64.9782 44.9666L64.921 45.0568L64.8645 45.1471L64.8089 45.2373L64.7542 45.3275L64.7004 45.4177L64.6476 45.5079L64.5957 45.5981L64.5449 45.6883L64.4953 45.7785L64.4468 45.8687L64.3994 45.9589L64.3534 46.0491L64.3086 46.1393L64.2651 46.2295L64.223 46.3197L64.1822 46.4099L64.1429 46.5001L64.1051 46.5903L64.0688 46.6805L64.034 46.7707L64.0008 46.8609L63.9692 46.9511L63.9392 47.0413L63.9108 47.1315L63.8842 47.2217L63.8592 47.3119L63.836 47.4021L63.8145 47.4923L63.7947 47.5825L63.7768 47.6727L63.7606 47.7629L63.7463 47.8531L63.7338 47.9433L63.7231 48.0335L63.7143 48.1237L63.7073 48.2139L63.7022 48.3041L63.6989 48.3943L63.6975 48.4845L63.698 48.5747L63.7004 48.6649L63.7046 48.7551L63.7107 48.8453L63.7186 48.9355L63.7284 49.0257L63.7401 49.1159L63.7536 49.2061L63.7688 49.2963L63.7859 49.3865L63.8048 49.4767L63.8255 49.5669L63.8479 49.6571L63.872 49.7473L63.8979 49.8375L63.9254 49.9277L63.9546 50.0179L63.9855 50.1081L64.0179 50.1983L64.052 50.2885L64.0876 50.3787L64.1247 50.4689L64.1633 50.5591L64.2033 50.6493L64.2448 50.7395L64.2876 50.8297L64.3318 50.9199L64.3773 51.0101L64.424 51.1003L64.472 51.1905L64.5211 51.2807L64.5713 51.3709L64.6227 51.4611L64.675 51.5513L64.7284 51.6415L64.7827 51.7317L64.8379 51.8219L64.8939 51.9121L64.9507 52.0023L65.0083 52.0925L65.0666 52.1827L65.1255 52.2729L65.185 52.3631L65.245 52.4533L65.3055 52.5435L65.3664 52.6337L65.4277 52.7239L65.4893 52.8141L65.5511 52.9043L65.6132 52.9945L65.6754 53.0847L65.7376 53.1749L65.8 53.2651L65.8623 53.3553L65.9245 53.4455L65.9866 53.5357L66.0485 53.6259L66.1101 53.7161L66.1715 53.8063L66.2324 53.8965L66.293 53.9867L66.3531 54.0769L66.4127 54.1671L66.4717 54.2573L66.5301 54.3475L66.5879 54.4377L66.6448 54.5279L66.701 54.6181L66.7564 54.7083L66.8109 54.7985L66.8644 54.8887L66.917 54.9789L66.9685 55.0691L67.019 55.1593L67.0683 55.2495L67.1165 55.3397L67.1635 55.4299L67.2092 55.5201L67.2537 55.6103L67.2968 55.7005L67.3385 55.7907L67.3788 55.8809L67.4177 55.9711L67.4551 56.0613L67.491 56.1515L67.5254 56.2417L67.5581 56.3319L67.5893 56.4221L67.6188 56.5123L67.6467 56.6025L67.6729 56.6927L67.6974 56.7829L67.7202 56.8731L67.7412 56.9633L67.7604 57.0535L67.7778 57.1437L67.7935 57.2339L67.8073 57.3241L67.8193 57.4143L67.8295 57.5045L67.8378 57.5947L67.8442 57.6849L67.8488 57.7751L67.8516 57.8653L67.8524 57.9555L67.8514 58.0457L67.8485 58.1359L67.8438 58.2261L67.8372 58.3163L67.8287 58.4065L67.8184 58.4967L67.8062 58.5869L67.7923 58.6771L67.7765 58.7673L67.7589 58.8575L67.7395 58.9477L67.7183 59.0379L67.6954 59.1281L67.6708 59.2183L67.6445 59.3085L67.6165 59.3987L67.5868 59.4889L67.5555 59.5791L67.5226 59.6693L67.4881 59.7595L67.4521 59.8497L67.4146 59.9399L67.3755 60.0301L67.3351 60.1203L67.2933 60.2105L67.25 60.3007L67.2055 60.3909L67.1597 60.4811L67.1126 60.5713L67.0643 60.6615L67.0149 60.7517L66.9643 60.842L66.9127 60.9322L66.86 61.0224L66.8064 61.1126L66.7518 61.2028L66.6964 61.293L66.6401 61.3832L66.5831 61.4734L66.5253 61.5636L66.4669 61.6538L66.4078 61.744L66.3482 61.8342L66.288 61.9244L66.2274 62.0146L66.1664 62.1048L66.105 62.195L66.0433 62.2852L65.9814 62.3754L65.9193 62.4656L65.8571 62.5558L65.7948 62.646" stroke="url(#paint0_linear_14_2)" stroke-width="2"/>
<path d="M72.0065 6L71.9442 6.0902L71.882 6.1804L71.8198 6.2706L71.7578 6.3608L71.6961 6.451L71.6346 6.5412L71.5735 6.6314L71.5127 6.7216L71.4524 6.81181L71.3926 6.90201L71.3333 6.99221L71.2747 7.08241L71.2167 7.17261L71.1594 7.26281L71.1029 7.35301L71.0472 7.44321L70.9924 7.53341L70.9384 7.62361L70.8855 7.71381L70.8335 7.80401L70.7826 7.89421L70.7328 7.98441L70.6841 8.07461L70.6367 8.16481L70.5904 8.25501L70.5455 8.34521L70.5018 8.43542L70.4596 8.52562L70.4187 8.61582L70.3792 8.70602L70.3412 8.79622L70.3047 8.88642L70.2697 8.97662L70.2363 9.06682L70.2045 9.15702L70.1743 9.24722L70.1457 9.33742L70.1189 9.42762L70.0937 9.51782L70.0702 9.60802L70.0485 9.69822L70.0286 9.78842L70.0104 9.87862L69.9941 9.96883L69.9795 10.059L69.9668 10.1492L69.9559 10.2394L69.9468 10.3296L69.9396 10.4198L69.9343 10.51L69.9308 10.6002L69.9292 10.6904L69.9294 10.7806L69.9316 10.8708L69.9356 10.961L69.9414 11.0512L69.9492 11.1414L69.9587 11.2316L69.9701 11.3218L69.9834 11.412L69.9985 11.5022L70.0153 11.5924L70.034 11.6826L70.0544 11.7728L70.0766 11.863L70.1006 11.9532L70.1262 12.0434L70.1536 12.1336L70.1826 12.2238L70.2132 12.314L70.2455 12.4042L70.2794 12.4944L70.3148 12.5846L70.3517 12.6748L70.3901 12.765L70.43 12.8552L70.4713 12.9454L70.5139 13.0356L70.558 13.1258L70.6033 13.216L70.6499 13.3062L70.6977 13.3964L70.7466 13.4866L70.7968 13.5768L70.848 13.667L70.9002 13.7572L70.9534 13.8474L71.0076 13.9377L71.0627 14.0279L71.1187 14.1181L71.1754 14.2083L71.2329 14.2985L71.2911 14.3887L71.3499 14.4789L71.4093 14.5691L71.4693 14.6593L71.5297 14.7495L71.5906 14.8397L71.6518 14.9299L71.7134 15.0201L71.7752 15.1103L71.8372 15.2005L71.8994 15.2907L71.9617 15.3809L72.024 15.4711L72.0863 15.5613L72.1485 15.6515L72.2106 15.7417L72.2726 15.8319L72.3342 15.9221L72.3956 16.0123L72.4567 16.1025L72.5173 16.1927L72.5775 16.2829L72.6371 16.3731L72.6962 16.4633L72.7547 16.5535L72.8125 16.6437L72.8695 16.7339L72.9258 16.8241L72.9813 16.9143L73.0359 17.0045L73.0896 17.0947L73.1423 17.1849L73.1939 17.2751L73.2445 17.3653L73.294 17.4555L73.3423 17.5457L73.3895 17.6359L73.4353 17.7261L73.4799 17.8163L73.5232 17.9065L73.5651 17.9967L73.6056 18.0869L73.6447 18.1771L73.6822 18.2673L73.7183 18.3575L73.7529 18.4477L73.7858 18.5379L73.8172 18.6281L73.8469 18.7183L73.875 18.8085L73.9014 18.8987L73.9261 18.9889L73.9491 19.0791L73.9703 19.1693L73.9897 19.2595L74.0074 19.3497L74.0233 19.4399L74.0373 19.5301L74.0495 19.6203L74.0599 19.7105L74.0684 19.8007L74.0751 19.8909L74.0799 19.9811L74.0829 20.0713L74.084 20.1615L74.0832 20.2517L74.0805 20.3419L74.076 20.4321L74.0696 20.5223L74.0614 20.6125L74.0513 20.7027L74.0394 20.7929L74.0256 20.8831L74.01 20.9733L73.9927 21.0635L73.9735 21.1537L73.9526 21.2439L73.9299 21.3341L73.9054 21.4243L73.8793 21.5145L73.8515 21.6047L73.822 21.6949L73.7909 21.7851L73.7582 21.8753L73.7239 21.9655L73.6881 22.0557L73.6507 22.1459L73.6119 22.2361L73.5716 22.3263L73.53 22.4165L73.4869 22.5067L73.4425 22.5969L73.3968 22.6871L73.3499 22.7773L73.3018 22.8675L73.2525 22.9577L73.2021 23.0479L73.1506 23.1381L73.098 23.2283L73.0445 23.3185L72.9901 23.4087L72.9347 23.4989L72.8786 23.5891L72.8216 23.6793L72.7639 23.7695L72.7056 23.8597L72.6466 23.9499L72.587 24.0401L72.5269 24.1303L72.4663 24.2205L72.4054 24.3107L72.344 24.4009L72.2824 24.4911L72.2205 24.5813L72.1584 24.6715L72.0962 24.7617L72.0339 24.8519L71.9716 24.9421L71.9093 25.0323L71.8471 25.1225L71.785 25.2127L71.7232 25.3029L71.6616 25.3931L71.6003 25.4833L71.5394 25.5735L71.4788 25.6637L71.4188 25.7539L71.3593 25.8441L71.3004 25.9343L71.2421 26.0245L71.1845 26.1147L71.1276 26.2049L71.0716 26.2951L71.0163 26.3853L70.962 26.4755L70.9086 26.5657L70.8562 26.6559L70.8048 26.7461L70.7545 26.8363L70.7054 26.9265L70.6574 27.0167L70.6106 27.1069L70.5651 27.1971L70.5209 27.2873L70.478 27.3775L70.4365 27.4677L70.3964 27.5579L70.3577 27.6481L70.3205 27.7383L70.2849 27.8285L70.2508 27.9187L70.2183 28.0089L70.1874 28.0991L70.1581 28.1893L70.1305 28.2795L70.1046 28.3697L70.0803 28.4599L70.0579 28.5501L70.0371 28.6403L70.0182 28.7305L70.001 28.8207L69.9857 28.9109L69.9721 29.0011L69.9604 29.0913L69.9506 29.1815L69.9425 29.2717L69.9364 29.3619L69.9321 29.4521L69.9297 29.5424L69.9291 29.6326L69.9304 29.7228L69.9336 29.813L69.9386 29.9032L69.9455 29.9934L69.9543 30.0836L69.9649 30.1738L69.9773 30.264L69.9916 30.3542L70.0077 30.4444L70.0256 30.5346L70.0452 30.6248L70.0667 30.715L70.0898 30.8052L70.1147 30.8954L70.1414 30.9856L70.1696 31.0758L70.1996 31.166L70.2311 31.2562L70.2643 31.3464L70.299 31.4366L70.3353 31.5268L70.373 31.617L70.4123 31.7072L70.4529 31.7974L70.495 31.8876L70.5384 31.9778L70.5832 32.068L70.6292 32.1582L70.6765 32.2484L70.725 32.3386L70.7746 32.4288L70.8253 32.519L70.8771 32.6092L70.9299 32.6994L70.9837 32.7896L71.0384 32.8798L71.094 32.97L71.1504 33.0602L71.2075 33.1504L71.2654 33.2406L71.324 33.3308L71.3831 33.421L71.4428 33.5112L71.5031 33.6014L71.5638 33.6916L71.6248 33.7818L71.6863 33.872L71.748 33.9622L71.8099 34.0524L71.872 34.1426L71.9343 34.2328L71.9966 34.323L72.0589 34.4132L72.1212 34.5034L72.1834 34.5936L72.2454 34.6838L72.3072 34.774L72.3687 34.8642L72.4299 34.9544L72.4907 35.0446L72.5511 35.1348L72.611 35.225L72.6703 35.3152L72.7291 35.4054L72.7872 35.4956L72.8446 35.5858L72.9012 35.676L72.957 35.7662L73.012 35.8564L73.0661 35.9466L73.1192 36.0368L73.1713 36.127L73.2224 36.2172L73.2724 36.3074L73.3212 36.3976L73.3689 36.4878L73.4153 36.578L73.4605 36.6682L73.5043 36.7584L73.5468 36.8486L73.588 36.9388L73.6277 37.029L73.6659 37.1192L73.7026 37.2094L73.7379 37.2996L73.7715 37.3898L73.8036 37.48L73.8341 37.5702L73.8629 37.6604L73.89 37.7506L73.9155 37.8408L73.9392 37.931L73.9612 38.0212L73.9814 38.1114L73.9998 38.2016L74.0165 38.2918L74.0314 38.382L74.0444 38.4722L74.0556 38.5624L74.0649 38.6526L74.0724 38.7428L74.0781 38.833L74.0818 38.9232L74.0837 39.0134L74.0838 39.1036L74.0819 39.1938L74.0782 39.284L74.0727 39.3742L74.0652 39.4644L74.056 39.5546L74.0448 39.6448L74.0319 39.735L74.0171 39.8252L74.0005 39.9154L73.9821 40.0056L73.962 40.0958L73.9401 40.186L73.9164 40.2762L73.891 40.3664L73.8639 40.4566L73.8352 40.5468L73.8048 40.637L73.7728 40.7272L73.7392 40.8174L73.704 40.9076L73.6673 40.9978L73.6292 41.088L73.5895 41.1782L73.5484 41.2684L73.506 41.3586L73.4622 41.4488L73.4171 41.539L73.3707 41.6292L73.3231 41.7194L73.2743 41.8096L73.2243 41.8998L73.1733 41.99L73.1212 42.0802L73.0681 42.1704L73.0141 42.2606L72.9592 42.3508L72.9034 42.441L72.8467 42.5312L72.7894 42.6214L72.7313 42.7116L72.6726 42.8018L72.6132 42.892L72.5534 42.9822L72.493 43.0724L72.4322 43.1626L72.371 43.2528L72.3095 43.343L72.2477 43.4332L72.1857 43.5234L72.1236 43.6136L72.0613 43.7038L71.999 43.794L71.9367 43.8842L71.8744 43.9744L71.8123 44.0646L71.7503 44.1548L71.6886 44.245L71.6272 44.3352L71.5661 44.4254L71.5054 44.5156L71.4451 44.6058L71.3854 44.696L71.3262 44.7862L71.2676 44.8764L71.2097 44.9666L71.1525 45.0568L71.0961 45.1471L71.0405 45.2373L70.9858 45.3275L70.932 45.4177L70.8791 45.5079L70.8273 45.5981L70.7765 45.6883L70.7268 45.7785L70.6783 45.8687L70.631 45.9589L70.5849 46.0491L70.5401 46.1393L70.4967 46.2295L70.4545 46.3197L70.4138 46.4099L70.3745 46.5001L70.3367 46.5903L70.3004 46.6805L70.2656 46.7707L70.2324 46.8609L70.2007 46.9511L70.1707 47.0413L70.1424 47.1315L70.1157 47.2217L70.0908 47.3119L70.0675 47.4021L70.046 47.4923L70.0263 47.5825L70.0083 47.6727L69.9922 47.7629L69.9779 47.8531L69.9653 47.9433L69.9547 48.0335L69.9458 48.1237L69.9389 48.2139L69.9337 48.3041L69.9305 48.3943L69.9291 48.4845L69.9296 48.5747L69.932 48.6649L69.9362 48.7551L69.9423 48.8453L69.9502 48.9355L69.96 49.0257L69.9717 49.1159L69.9851 49.2061L70.0004 49.2963L70.0175 49.3865L70.0364 49.4767L70.057 49.5669L70.0794 49.6571L70.1036 49.7473L70.1295 49.8375L70.157 49.9277L70.1862 50.0179L70.2171 50.1081L70.2495 50.1983L70.2836 50.2885L70.3191 50.3787L70.3563 50.4689L70.3949 50.5591L70.4349 50.6493L70.4764 50.7395L70.5192 50.8297L70.5634 50.9199L70.6088 51.0101L70.6556 51.1003L70.7035 51.1905L70.7526 51.2807L70.8029 51.3709L70.8542 51.4611L70.9066 51.5513L70.9599 51.6415L71.0143 51.7317L71.0694 51.8219L71.1255 51.9121L71.1823 52.0023L71.2399 52.0925L71.2981 52.1827L71.357 52.2729L71.4165 52.3631L71.4765 52.4533L71.537 52.5435L71.5979 52.6337L71.6592 52.7239L71.7208 52.8141L71.7827 52.9043L71.8447 52.9945L71.9069 53.0847L71.9692 53.1749L72.0315 53.2651L72.0938 53.3553L72.156 53.4455L72.2181 53.5357L72.28 53.6259L72.3417 53.7161L72.403 53.8063L72.464 53.8965L72.5246 53.9867L72.5847 54.0769L72.6443 54.1671L72.7033 54.2573L72.7617 54.3475L72.8194 54.4377L72.8764 54.5279L72.9326 54.6181L72.988 54.7083L73.0424 54.7985L73.096 54.8887L73.1486 54.9789L73.2001 55.0691L73.2506 55.1593L73.2999 55.2495L73.3481 55.3397L73.3951 55.4299L73.4408 55.5201L73.4852 55.6103L73.5283 55.7005L73.5701 55.7907L73.6104 55.8809L73.6493 55.9711L73.6867 56.0613L73.7226 56.1515L73.7569 56.2417L73.7897 56.3319L73.8209 56.4221L73.8504 56.5123L73.8783 56.6025L73.9045 56.6927L73.929 56.7829L73.9517 56.8731L73.9727 56.9633L73.992 57.0535L74.0094 57.1437L74.0251 57.2339L74.0389 57.3241L74.0509 57.4143L74.061 57.5045L74.0694 57.5947L74.0758 57.6849L74.0804 57.7751L74.0831 57.8653L74.084 57.9555L74.083 58.0457L74.0801 58.1359L74.0753 58.2261L74.0687 58.3163L74.0603 58.4065L74.05 58.4967L74.0378 58.5869L74.0238 58.6771L74.008 58.7673L73.9904 58.8575L73.9711 58.9477L73.9499 59.0379L73.927 59.1281L73.9024 59.2183L73.876 59.3085L73.848 59.3987L73.8184 59.4889L73.7871 59.5791L73.7541 59.6693L73.7197 59.7595L73.6836 59.8497L73.6461 59.9399L73.6071 60.0301L73.5667 60.1203L73.5248 60.2105L73.4816 60.3007L73.4371 60.3909L73.3912 60.4811L73.3442 60.5713L73.2959 60.6615L73.2464 60.7517L73.1959 60.842L73.1442 60.9322L73.0916 61.0224L73.038 61.1126L72.9834 61.2028L72.928 61.293L72.8717 61.3832L72.8147 61.4734L72.7569 61.5636L72.6985 61.6538L72.6394 61.744L72.5798 61.8342L72.5196 61.9244L72.459 62.0146L72.398 62.1048L72.3366 62.195L72.2749 62.2852L72.213 62.3754L72.1509 62.4656L72.0887 62.5558L72.0264 62.646" stroke="url(#paint1_linear_14_2)" stroke-width="2"/>
<path d="M59.543 6L59.4807 6.0902L59.4185 6.1804L59.3563 6.2706L59.2943 6.3608L59.2326 6.451L59.1711 6.5412L59.11 6.6314L59.0492 6.7216L58.9889 6.81181L58.9291 6.90201L58.8698 6.99221L58.8112 7.08241L58.7532 7.17261L58.6959 7.26281L58.6394 7.35301L58.5837 7.44321L58.5289 7.53341L58.4749 7.62361L58.422 7.71381L58.37 7.80401L58.3191 7.89421L58.2693 7.98441L58.2206 8.07461L58.1732 8.16481L58.1269 8.25501L58.082 8.34521L58.0383 8.43542L57.9961 8.52562L57.9552 8.61582L57.9157 8.70602L57.8777 8.79622L57.8412 8.88642L57.8062 8.97662L57.7728 9.06682L57.741 9.15702L57.7108 9.24722L57.6822 9.33742L57.6554 9.42762L57.6302 9.51782L57.6067 9.60802L57.585 9.69822L57.5651 9.78842L57.5469 9.87862L57.5306 9.96883L57.516 10.059L57.5033 10.1492L57.4924 10.2394L57.4833 10.3296L57.4761 10.4198L57.4708 10.51L57.4673 10.6002L57.4657 10.6904L57.4659 10.7806L57.4681 10.8708L57.4721 10.961L57.4779 11.0512L57.4857 11.1414L57.4952 11.2316L57.5066 11.3218L57.5199 11.412L57.535 11.5022L57.5518 11.5924L57.5705 11.6826L57.5909 11.7728L57.6131 11.863L57.6371 11.9532L57.6627 12.0434L57.6901 12.1336L57.7191 12.2238L57.7497 12.314L57.782 12.4042L57.8159 12.4944L57.8513 12.5846L57.8882 12.6748L57.9266 12.765L57.9665 12.8552L58.0078 12.9454L58.0504 13.0356L58.0945 13.1258L58.1398 13.216L58.1864 13.3062L58.2342 13.3964L58.2831 13.4866L58.3333 13.5768L58.3845 13.667L58.4367 13.7572L58.4899 13.8474L58.5441 13.9377L58.5992 14.0279L58.6552 14.1181L58.7119 14.2083L58.7694 14.2985L58.8276 14.3887L58.8864 14.4789L58.9458 14.5691L59.0058 14.6593L59.0662 14.7495L59.1271 14.8397L59.1883 14.9299L59.2499 15.0201L59.3117 15.1103L59.3737 15.2005L59.4359 15.2907L59.4982 15.3809L59.5605 15.4711L59.6228 15.5613L59.685 15.6515L59.7471 15.7417L59.8091 15.8319L59.8707 15.9221L59.9321 16.0123L59.9932 16.1025L60.0538 16.1927L60.114 16.2829L60.1736 16.3731L60.2327 16.4633L60.2912 16.5535L60.349 16.6437L60.406 16.7339L60.4623 16.8241L60.5178 16.9143L60.5724 17.0045L60.6261 17.0947L60.6788 17.1849L60.7304 17.2751L60.781 17.3653L60.8305 17.4555L60.8788 17.5457L60.926 17.6359L60.9718 17.7261L61.0164 17.8163L61.0597 17.9065L61.1016 17.9967L61.1421 18.0869L61.1812 18.1771L61.2187 18.2673L61.2548 18.3575L61.2894 18.4477L61.3223 18.5379L61.3537 18.6281L61.3834 18.7183L61.4115 18.8085L61.4379 18.8987L61.4626 18.9889L61.4856 19.0791L61.5068 19.1693L61.5262 19.2595L61.5439 19.3497L61.5598 19.4399L61.5738 19.5301L61.586 19.6203L61.5964 19.7105L61.6049 19.8007L61.6116 19.8909L61.6164 19.9811L61.6194 20.0713L61.6205 20.1615L61.6197 20.2517L61.617 20.3419L61.6125 20.4321L61.6061 20.5223L61.5979 20.6125L61.5878 20.7027L61.5759 20.7929L61.5621 20.8831L61.5465 20.9733L61.5292 21.0635L61.51 21.1537L61.4891 21.2439L61.4664 21.3341L61.4419 21.4243L61.4158 21.5145L61.388 21.6047L61.3585 21.6949L61.3274 21.7851L61.2947 21.8753L61.2604 21.9655L61.2246 22.0557L61.1872 22.1459L61.1484 22.2361L61.1081 22.3263L61.0665 22.4165L61.0234 22.5067L60.979 22.5969L60.9333 22.6871L60.8864 22.7773L60.8383 22.8675L60.789 22.9577L60.7386 23.0479L60.6871 23.1381L60.6345 23.2283L60.581 23.3185L60.5266 23.4087L60.4712 23.4989L60.4151 23.5891L60.3581 23.6793L60.3004 23.7695L60.2421 23.8597L60.1831 23.9499L60.1235 24.0401L60.0634 24.1303L60.0028 24.2205L59.9419 24.3107L59.8805 24.4009L59.8189 24.4911L59.757 24.5813L59.6949 24.6715L59.6327 24.7617L59.5704 24.8519L59.5081 24.9421L59.4458 25.0323L59.3836 25.1225L59.3215 25.2127L59.2597 25.3029L59.1981 25.3931L59.1368 25.4833L59.0759 25.5735L59.0153 25.6637L58.9553 25.7539L58.8958 25.8441L58.8369 25.9343L58.7786 26.0245L58.721 26.1147L58.6641 26.2049L58.6081 26.2951L58.5528 26.3853L58.4985 26.4755L58.4451 26.5657L58.3927 26.6559L58.3413 26.7461L58.291 26.8363L58.2419 26.9265L58.1939 27.0167L58.1471 27.1069L58.1016 27.1971L58.0574 27.2873L58.0145 27.3775L57.973 27.4677L57.9329 27.5579L57.8942 27.6481L57.857 27.7383L57.8214 27.8285L57.7873 27.9187L57.7548 28.0089L57.7239 28.0991L57.6946 28.1893L57.667 28.2795L57.6411 28.3697L57.6168 28.4599L57.5944 28.5501L57.5736 28.6403L57.5547 28.7305L57.5375 28.8207L57.5222 28.9109L57.5086 29.0011L57.4969 29.0913L57.4871 29.1815L57.479 29.2717L57.4729 29.3619L57.4686 29.4521L57.4662 29.5424L57.4656 29.6326L57.4669 29.7228L57.4701 29.813L57.4751 29.9032L57.482 29.9934L57.4908 30.0836L57.5014 30.1738L57.5138 30.264L57.5281 30.3542L57.5442 30.4444L57.5621 30.5346L57.5817 30.6248L57.6032 30.715L57.6263 30.8052L57.6512 30.8954L57.6779 30.9856L57.7061 31.0758L57.7361 31.166L57.7676 31.2562L57.8008 31.3464L57.8355 31.4366L57.8718 31.5268L57.9095 31.617L57.9488 31.7072L57.9894 31.7974L58.0315 31.8876L58.0749 31.9778L58.1197 32.068L58.1657 32.1582L58.213 32.2484L58.2615 32.3386L58.3111 32.4288L58.3618 32.519L58.4136 32.6092L58.4664 32.6994L58.5202 32.7896L58.5749 32.8798L58.6305 32.97L58.6869 33.0602L58.744 33.1504L58.8019 33.2406L58.8605 33.3308L58.9196 33.421L58.9793 33.5112L59.0396 33.6014L59.1003 33.6916L59.1613 33.7818L59.2228 33.872L59.2845 33.9622L59.3464 34.0524L59.4085 34.1426L59.4708 34.2328L59.5331 34.323L59.5954 34.4132L59.6577 34.5034L59.7199 34.5936L59.7819 34.6838L59.8437 34.774L59.9052 34.8642L59.9664 34.9544L60.0272 35.0446L60.0876 35.1348L60.1475 35.225L60.2068 35.3152L60.2656 35.4054L60.3237 35.4956L60.3811 35.5858L60.4377 35.676L60.4935 35.7662L60.5485 35.8564L60.6026 35.9466L60.6557 36.0368L60.7078 36.127L60.7589 36.2172L60.8089 36.3074L60.8577 36.3976L60.9054 36.4878L60.9518 36.578L60.997 36.6682L61.0408 36.7584L61.0833 36.8486L61.1245 36.9388L61.1642 37.029L61.2024 37.1192L61.2391 37.2094L61.2744 37.2996L61.308 37.3898L61.3401 37.48L61.3706 37.5702L61.3994 37.6604L61.4265 37.7506L61.452 37.8408L61.4757 37.931L61.4977 38.0212L61.5179 38.1114L61.5363 38.2016L61.553 38.2918L61.5679 38.382L61.5809 38.4722L61.5921 38.5624L61.6014 38.6526L61.6089 38.7428L61.6146 38.833L61.6183 38.9232L61.6202 39.0134L61.6203 39.1036L61.6184 39.1938L61.6147 39.284L61.6092 39.3742L61.6017 39.4644L61.5925 39.5546L61.5813 39.6448L61.5684 39.735L61.5536 39.8252L61.537 39.9154L61.5186 40.0056L61.4985 40.0958L61.4766 40.186L61.4529 40.2762L61.4275 40.3664L61.4004 40.4566L61.3717 40.5468L61.3413 40.637L61.3093 40.7272L61.2757 40.8174L61.2405 40.9076L61.2038 40.9978L61.1657 41.088L61.126 41.1782L61.0849 41.2684L61.0425 41.3586L60.9987 41.4488L60.9536 41.539L60.9072 41.6292L60.8596 41.7194L60.8108 41.8096L60.7608 41.8998L60.7098 41.99L60.6577 42.0802L60.6046 42.1704L60.5506 42.2606L60.4957 42.3508L60.4399 42.441L60.3832 42.5312L60.3259 42.6214L60.2678 42.7116L60.2091 42.8018L60.1497 42.892L60.0899 42.9822L60.0295 43.0724L59.9687 43.1626L59.9075 43.2528L59.846 43.343L59.7842 43.4332L59.7222 43.5234L59.6601 43.6136L59.5978 43.7038L59.5355 43.794L59.4732 43.8842L59.4109 43.9744L59.3488 44.0646L59.2868 44.1548L59.2251 44.245L59.1637 44.3352L59.1026 44.4254L59.0419 44.5156L58.9816 44.6058L58.9219 44.696L58.8627 44.7862L58.8041 44.8764L58.7462 44.9666L58.689 45.0568L58.6326 45.1471L58.577 45.2373L58.5223 45.3275L58.4685 45.4177L58.4156 45.5079L58.3638 45.5981L58.313 45.6883L58.2633 45.7785L58.2148 45.8687L58.1675 45.9589L58.1214 46.0491L58.0766 46.1393L58.0332 46.2295L57.991 46.3197L57.9503 46.4099L57.911 46.5001L57.8732 46.5903L57.8369 46.6805L57.8021 46.7707L57.7689 46.8609L57.7372 46.9511L57.7072 47.0413L57.6789 47.1315L57.6522 47.2217L57.6273 47.3119L57.604 47.4021L57.5825 47.4923L57.5628 47.5825L57.5448 47.6727L57.5287 47.7629L57.5144 47.8531L57.5018 47.9433L57.4912 48.0335L57.4823 48.1237L57.4754 48.2139L57.4702 48.3041L57.467 48.3943L57.4656 48.4845L57.4661 48.5747L57.4685 48.6649L57.4727 48.7551L57.4788 48.8453L57.4867 48.9355L57.4965 49.0257L57.5081 49.1159L57.5216 49.2061L57.5369 49.2963L57.554 49.3865L57.5729 49.4767L57.5935 49.5669L57.6159 49.6571L57.6401 49.7473L57.6659 49.8375L57.6935 49.9277L57.7227 50.0179L57.7536 50.1081L57.786 50.1983L57.8201 50.2885L57.8556 50.3787L57.8928 50.4689L57.9314 50.5591L57.9714 50.6493L58.0129 50.7395L58.0557 50.8297L58.0999 50.9199L58.1453 51.0101L58.1921 51.1003L58.24 51.1905L58.2891 51.2807L58.3394 51.3709L58.3907 51.4611L58.4431 51.5513L58.4964 51.6415L58.5507 51.7317L58.6059 51.8219L58.662 51.9121L58.7188 52.0023L58.7764 52.0925L58.8346 52.1827L58.8935 52.2729L58.953 52.3631L59.013 52.4533L59.0735 52.5435L59.1344 52.6337L59.1957 52.7239L59.2573 52.8141L59.3192 52.9043L59.3812 52.9945L59.4434 53.0847L59.5057 53.1749L59.568 53.2651L59.6303 53.3553L59.6925 53.4455L59.7546 53.5357L59.8165 53.6259L59.8782 53.7161L59.9395 53.8063L60.0005 53.8965L60.0611 53.9867L60.1212 54.0769L60.1808 54.1671L60.2398 54.2573L60.2982 54.3475L60.3559 54.4377L60.4129 54.5279L60.4691 54.6181L60.5245 54.7083L60.5789 54.7985L60.6325 54.8887L60.6851 54.9789L60.7366 55.0691L60.7871 55.1593L60.8364 55.2495L60.8846 55.3397L60.9316 55.4299L60.9773 55.5201L61.0217 55.6103L61.0648 55.7005L61.1066 55.7907L61.1469 55.8809L61.1858 55.9711L61.2232 56.0613L61.2591 56.1515L61.2934 56.2417L61.3262 56.3319L61.3574 56.4221L61.3869 56.5123L61.4148 56.6025L61.441 56.6927L61.4655 56.7829L61.4882 56.8731L61.5092 56.9633L61.5285 57.0535L61.5459 57.1437L61.5615 57.2339L61.5754 57.3241L61.5874 57.4143L61.5975 57.5045L61.6058 57.5947L61.6123 57.6849L61.6169 57.7751L61.6196 57.8653L61.6205 57.9555L61.6195 58.0457L61.6166 58.1359L61.6118 58.2261L61.6052 58.3163L61.5968 58.4065L61.5865 58.4967L61.5743 58.5869L61.5603 58.6771L61.5445 58.7673L61.5269 58.8575L61.5076 58.9477L61.4864 59.0379L61.4635 59.1281L61.4389 59.2183L61.4125 59.3085L61.3845 59.3987L61.3549 59.4889L61.3236 59.5791L61.2906 59.6693L61.2562 59.7595L61.2201 59.8497L61.1826 59.9399L61.1436 60.0301L61.1032 60.1203L61.0613 60.2105L61.0181 60.3007L60.9736 60.3909L60.9277 60.4811L60.8807 60.5713L60.8324 60.6615L60.7829 60.7517L60.7324 60.842L60.6807 60.9322L60.6281 61.0224L60.5745 61.1126L60.5199 61.2028L60.4645 61.293L60.4082 61.3832L60.3512 61.4734L60.2934 61.5636L60.235 61.6538L60.1759 61.744L60.1163 61.8342L60.0561 61.9244L59.9955 62.0146L59.9345 62.1048L59.8731 62.195L59.8114 62.2852L59.7495 62.3754L59.6874 62.4656L59.6252 62.5558L59.5629 62.646" stroke="url(#paint2_linear_14_2)" stroke-width="2"/>
<path d="M53.3091 6L53.2468 6.0902L53.1846 6.1804L53.1224 6.2706L53.0604 6.3608L52.9987 6.451L52.9372 6.5412L52.8761 6.6314L52.8153 6.7216L52.755 6.81181L52.6952 6.90201L52.636 6.99221L52.5773 7.08241L52.5193 7.17261L52.462 7.26281L52.4055 7.35301L52.3498 7.44321L52.295 7.53341L52.241 7.62361L52.1881 7.71381L52.1361 7.80401L52.0852 7.89421L52.0354 7.98441L51.9868 8.07461L51.9393 8.16481L51.8931 8.25501L51.8481 8.34521L51.8045 8.43542L51.7622 8.52562L51.7213 8.61582L51.6818 8.70602L51.6438 8.79622L51.6073 8.88642L51.5723 8.97662L51.5389 9.06682L51.5071 9.15702L51.4769 9.24722L51.4484 9.33742L51.4215 9.42762L51.3963 9.51782L51.3729 9.60802L51.3512 9.69822L51.3312 9.78842L51.313 9.87862L51.2967 9.96883L51.2821 10.059L51.2694 10.1492L51.2585 10.2394L51.2494 10.3296L51.2422 10.4198L51.2369 10.51L51.2334 10.6002L51.2318 10.6904L51.2321 10.7806L51.2342 10.8708L51.2382 10.961L51.2441 11.0512L51.2518 11.1414L51.2613 11.2316L51.2728 11.3218L51.286 11.412L51.3011 11.5022L51.318 11.5924L51.3366 11.6826L51.3571 11.7728L51.3793 11.863L51.4032 11.9532L51.4288 12.0434L51.4562 12.1336L51.4852 12.2238L51.5159 12.314L51.5481 12.4042L51.582 12.4944L51.6174 12.5846L51.6543 12.6748L51.6927 12.765L51.7326 12.8552L51.7739 12.9454L51.8166 13.0356L51.8606 13.1258L51.9059 13.216L51.9525 13.3062L52.0003 13.3964L52.0493 13.4866L52.0994 13.5768L52.1506 13.667L52.2028 13.7572L52.2561 13.8474L52.3102 13.9377L52.3653 14.0279L52.4213 14.1181L52.478 14.2083L52.5355 14.2985L52.5937 14.3887L52.6525 14.4789L52.7119 14.5691L52.7719 14.6593L52.8323 14.7495L52.8932 14.8397L52.9544 14.9299L53.016 15.0201L53.0778 15.1103L53.1398 15.2005L53.202 15.2907L53.2643 15.3809L53.3266 15.4711L53.3889 15.5613L53.4511 15.6515L53.5132 15.7417L53.5752 15.8319L53.6368 15.9221L53.6982 16.0123L53.7593 16.1025L53.8199 16.1927L53.8801 16.2829L53.9397 16.3731L53.9988 16.4633L54.0573 16.5535L54.1151 16.6437L54.1722 16.7339L54.2285 16.8241L54.2839 16.9143L54.3385 17.0045L54.3922 17.0947L54.4449 17.1849L54.4965 17.2751L54.5471 17.3653L54.5966 17.4555L54.6449 17.5457L54.6921 17.6359L54.7379 17.7261L54.7825 17.8163L54.8258 17.9065L54.8677 17.9967L54.9082 18.0869L54.9473 18.1771L54.9849 18.2673L55.0209 18.3575L55.0555 18.4477L55.0884 18.5379L55.1198 18.6281L55.1495 18.7183L55.1776 18.8085L55.204 18.8987L55.2287 18.9889L55.2517 19.0791L55.2729 19.1693L55.2923 19.2595L55.31 19.3497L55.3259 19.4399L55.3399 19.5301L55.3521 19.6203L55.3625 19.7105L55.3711 19.8007L55.3777 19.8909L55.3826 19.9811L55.3855 20.0713L55.3866 20.1615L55.3858 20.2517L55.3832 20.3419L55.3786 20.4321L55.3722 20.5223L55.364 20.6125L55.3539 20.7027L55.342 20.7929L55.3282 20.8831L55.3127 20.9733L55.2953 21.0635L55.2761 21.1537L55.2552 21.2439L55.2325 21.3341L55.2081 21.4243L55.1819 21.5145L55.1541 21.6047L55.1246 21.6949L55.0935 21.7851L55.0608 21.8753L55.0265 21.9655L54.9907 22.0557L54.9534 22.1459L54.9145 22.2361L54.8743 22.3263L54.8326 22.4165L54.7895 22.5067L54.7451 22.5969L54.6995 22.6871L54.6525 22.7773L54.6044 22.8675L54.5551 22.9577L54.5047 23.0479L54.4532 23.1381L54.4006 23.2283L54.3471 23.3185L54.2927 23.4087L54.2373 23.4989L54.1812 23.5891L54.1242 23.6793L54.0665 23.7695L54.0082 23.8597L53.9492 23.9499L53.8896 24.0401L53.8295 24.1303L53.769 24.2205L53.708 24.3107L53.6466 24.4009L53.585 24.4911L53.5231 24.5813L53.461 24.6715L53.3988 24.7617L53.3365 24.8519L53.2742 24.9421L53.2119 25.0323L53.1497 25.1225L53.0877 25.2127L53.0258 25.3029L52.9642 25.3931L52.9029 25.4833L52.842 25.5735L52.7815 25.6637L52.7214 25.7539L52.6619 25.8441L52.603 25.9343L52.5447 26.0245L52.4871 26.1147L52.4303 26.2049L52.3742 26.2951L52.319 26.3853L52.2646 26.4755L52.2112 26.5657L52.1588 26.6559L52.1075 26.7461L52.0572 26.8363L52.008 26.9265L51.96 27.0167L51.9132 27.1069L51.8677 27.1971L51.8235 27.2873L51.7806 27.3775L51.7391 27.4677L51.699 27.5579L51.6603 27.6481L51.6232 27.7383L51.5875 27.8285L51.5534 27.9187L51.5209 28.0089L51.49 28.0991L51.4607 28.1893L51.4331 28.2795L51.4072 28.3697L51.383 28.4599L51.3605 28.5501L51.3398 28.6403L51.3208 28.7305L51.3036 28.8207L51.2883 28.9109L51.2747 29.0011L51.263 29.0913L51.2532 29.1815L51.2452 29.2717L51.239 29.3619L51.2347 29.4521L51.2323 29.5424L51.2317 29.6326L51.233 29.7228L51.2362 29.813L51.2412 29.9032L51.2481 29.9934L51.2569 30.0836L51.2675 30.1738L51.28 30.264L51.2942 30.3542L51.3103 30.4444L51.3282 30.5346L51.3479 30.6248L51.3693 30.715L51.3925 30.8052L51.4174 30.8954L51.444 30.9856L51.4722 31.0758L51.5022 31.166L51.5337 31.2562L51.5669 31.3464L51.6016 31.4366L51.6379 31.5268L51.6757 31.617L51.7149 31.7072L51.7556 31.7974L51.7976 31.8876L51.8411 31.9778L51.8858 32.068L51.9318 32.1582L51.9791 32.2484L52.0276 32.3386L52.0772 32.4288L52.1279 32.519L52.1797 32.6092L52.2325 32.6994L52.2863 32.7896L52.341 32.8798L52.3966 32.97L52.453 33.0602L52.5101 33.1504L52.568 33.2406L52.6266 33.3308L52.6857 33.421L52.7455 33.5112L52.8057 33.6014L52.8664 33.6916L52.9274 33.7818L52.9889 33.872L53.0506 33.9622L53.1125 34.0524L53.1747 34.1426L53.2369 34.2328L53.2992 34.323L53.3615 34.4132L53.4238 34.5034L53.486 34.5936L53.548 34.6838L53.6098 34.774L53.6713 34.8642L53.7325 34.9544L53.7933 35.0446L53.8537 35.1348L53.9136 35.225L53.9729 35.3152L54.0317 35.4054L54.0898 35.4956L54.1472 35.5858L54.2038 35.676L54.2596 35.7662L54.3146 35.8564L54.3687 35.9466L54.4218 36.0368L54.474 36.127L54.525 36.2172L54.575 36.3074L54.6238 36.3976L54.6715 36.4878L54.7179 36.578L54.7631 36.6682L54.807 36.7584L54.8495 36.8486L54.8906 36.9388L54.9303 37.029L54.9685 37.1192L55.0053 37.2094L55.0405 37.2996L55.0741 37.3898L55.1062 37.48L55.1367 37.5702L55.1655 37.6604L55.1926 37.7506L55.2181 37.8408L55.2418 37.931L55.2638 38.0212L55.284 38.1114L55.3025 38.2016L55.3191 38.2918L55.334 38.382L55.347 38.4722L55.3582 38.5624L55.3675 38.6526L55.375 38.7428L55.3807 38.833L55.3844 38.9232L55.3863 39.0134L55.3864 39.1036L55.3845 39.1938L55.3808 39.284L55.3753 39.3742L55.3679 39.4644L55.3586 39.5546L55.3475 39.6448L55.3345 39.735L55.3197 39.8252L55.3031 39.9154L55.2847 40.0056L55.2646 40.0958L55.2427 40.186L55.219 40.2762L55.1936 40.3664L55.1665 40.4566L55.1378 40.5468L55.1074 40.637L55.0754 40.7272L55.0418 40.8174L55.0066 40.9076L54.97 40.9978L54.9318 41.088L54.8921 41.1782L54.8511 41.2684L54.8086 41.3586L54.7648 41.4488L54.7197 41.539L54.6733 41.6292L54.6257 41.7194L54.5769 41.8096L54.527 41.8998L54.4759 41.99L54.4238 42.0802L54.3708 42.1704L54.3167 42.2606L54.2618 42.3508L54.206 42.441L54.1494 42.5312L54.092 42.6214L54.0339 42.7116L53.9752 42.8018L53.9159 42.892L53.856 42.9822L53.7956 43.0724L53.7348 43.1626L53.6736 43.2528L53.6121 43.343L53.5503 43.4332L53.4883 43.5234L53.4262 43.6136L53.3639 43.7038L53.3016 43.794L53.2393 43.8842L53.177 43.9744L53.1149 44.0646L53.053 44.1548L52.9912 44.245L52.9298 44.3352L52.8687 44.4254L52.808 44.5156L52.7477 44.6058L52.688 44.696L52.6288 44.7862L52.5702 44.8764L52.5123 44.9666L52.4551 45.0568L52.3987 45.1471L52.3431 45.2373L52.2884 45.3275L52.2346 45.4177L52.1817 45.5079L52.1299 45.5981L52.0791 45.6883L52.0295 45.7785L51.9809 45.8687L51.9336 45.9589L51.8875 46.0491L51.8427 46.1393L51.7993 46.2295L51.7571 46.3197L51.7164 46.4099L51.6771 46.5001L51.6393 46.5903L51.603 46.6805L51.5682 46.7707L51.535 46.8609L51.5034 46.9511L51.4734 47.0413L51.445 47.1315L51.4183 47.2217L51.3934 47.3119L51.3701 47.4021L51.3486 47.4923L51.3289 47.5825L51.311 47.6727L51.2948 47.7629L51.2805 47.8531L51.268 47.9433L51.2573 48.0335L51.2484 48.1237L51.2415 48.2139L51.2364 48.3041L51.2331 48.3943L51.2317 48.4845L51.2322 48.5747L51.2346 48.6649L51.2388 48.7551L51.2449 48.8453L51.2528 48.9355L51.2626 49.0257L51.2743 49.1159L51.2877 49.2061L51.303 49.2963L51.3201 49.3865L51.339 49.4767L51.3597 49.5669L51.3821 49.6571L51.4062 49.7473L51.4321 49.8375L51.4596 49.9277L51.4888 50.0179L51.5197 50.1081L51.5521 50.1983L51.5862 50.2885L51.6218 50.3787L51.6589 50.4689L51.6975 50.5591L51.7375 50.6493L51.779 50.7395L51.8218 50.8297L51.866 50.9199L51.9115 51.0101L51.9582 51.1003L52.0061 51.1905L52.0553 51.2807L52.1055 51.3709L52.1568 51.4611L52.2092 51.5513L52.2626 51.6415L52.3169 51.7317L52.3721 51.8219L52.4281 51.9121L52.4849 52.0023L52.5425 52.0925L52.6008 52.1827L52.6597 52.2729L52.7191 52.3631L52.7792 52.4533L52.8396 52.5435L52.9006 52.6337L52.9618 52.7239L53.0234 52.8141L53.0853 52.9043L53.1473 52.9945L53.2095 53.0847L53.2718 53.1749L53.3341 53.2651L53.3964 53.3553L53.4587 53.4455L53.5207 53.5357L53.5826 53.6259L53.6443 53.7161L53.7056 53.8063L53.7666 53.8965L53.8272 53.9867L53.8873 54.0769L53.9469 54.1671L54.0059 54.2573L54.0643 54.3475L54.122 54.4377L54.179 54.5279L54.2352 54.6181L54.2906 54.7083L54.3451 54.7985L54.3986 54.8887L54.4512 54.9789L54.5027 55.0691L54.5532 55.1593L54.6025 55.2495L54.6507 55.3397L54.6977 55.4299L54.7434 55.5201L54.7878 55.6103L54.8309 55.7005L54.8727 55.7907L54.913 55.8809L54.9519 55.9711L54.9893 56.0613L55.0252 56.1515L55.0595 56.2417L55.0923 56.3319L55.1235 56.4221L55.153 56.5123L55.1809 56.6025L55.2071 56.6927L55.2316 56.7829L55.2543 56.8731L55.2753 56.9633L55.2946 57.0535L55.312 57.1437L55.3277 57.2339L55.3415 57.3241L55.3535 57.4143L55.3637 57.5045L55.372 57.5947L55.3784 57.6849L55.383 57.7751L55.3857 57.8653L55.3866 57.9555L55.3856 58.0457L55.3827 58.1359L55.378 58.2261L55.3713 58.3163L55.3629 58.4065L55.3526 58.4967L55.3404 58.5869L55.3264 58.6771L55.3106 58.7673L55.293 58.8575L55.2737 58.9477L55.2525 59.0379L55.2296 59.1281L55.205 59.2183L55.1787 59.3085L55.1506 59.3987L55.121 59.4889L55.0897 59.5791L55.0568 59.6693L55.0223 59.7595L54.9863 59.8497L54.9487 59.9399L54.9097 60.0301L54.8693 60.1203L54.8274 60.2105L54.7842 60.3007L54.7397 60.3909L54.6938 60.4811L54.6468 60.5713L54.5985 60.6615L54.549 60.7517L54.4985 60.842L54.4469 60.9322L54.3942 61.0224L54.3406 61.1126L54.286 61.2028L54.2306 61.293L54.1743 61.3832L54.1173 61.4734L54.0595 61.5636L54.0011 61.6538L53.942 61.744L53.8824 61.8342L53.8222 61.9244L53.7616 62.0146L53.7006 62.1048L53.6392 62.195L53.5775 62.2852L53.5156 62.3754L53.4535 62.4656L53.3913 62.5558L53.329 62.646" stroke="url(#paint3_linear_14_2)" stroke-width="2"/>
<path d="M47.0771 6L47.0148 6.0902L46.9525 6.1804L46.8904 6.2706L46.8284 6.3608L46.7666 6.451L46.7052 6.5412L46.644 6.6314L46.5833 6.7216L46.523 6.81181L46.4631 6.90201L46.4039 6.99221L46.3452 7.08241L46.2873 7.17261L46.23 7.26281L46.1735 7.35301L46.1178 7.44321L46.0629 7.53341L46.009 7.62361L45.956 7.71381L45.9041 7.80401L45.8532 7.89421L45.8034 7.98441L45.7547 8.07461L45.7072 8.16481L45.661 8.25501L45.616 8.34521L45.5724 8.43542L45.5301 8.52562L45.4892 8.61582L45.4498 8.70602L45.4117 8.79622L45.3752 8.88642L45.3403 8.97662L45.3069 9.06682L45.275 9.15702L45.2448 9.24722L45.2163 9.33742L45.1894 9.42762L45.1643 9.51782L45.1408 9.60802L45.1191 9.69822L45.0992 9.78842L45.081 9.87862L45.0646 9.96883L45.0501 10.059L45.0373 10.1492L45.0264 10.2394L45.0174 10.3296L45.0102 10.4198L45.0048 10.51L45.0013 10.6002L44.9997 10.6904L45 10.7806L45.0021 10.8708L45.0061 10.961L45.012 11.0512L45.0197 11.1414L45.0293 11.2316L45.0407 11.3218L45.054 11.412L45.069 11.5022L45.0859 11.5924L45.1046 11.6826L45.125 11.7728L45.1472 11.863L45.1711 11.9532L45.1968 12.0434L45.2241 12.1336L45.2531 12.2238L45.2838 12.314L45.3161 12.4042L45.3499 12.4944L45.3853 12.5846L45.4222 12.6748L45.4607 12.765L45.5005 12.8552L45.5418 12.9454L45.5845 13.0356L45.6285 13.1258L45.6738 13.216L45.7204 13.3062L45.7682 13.3964L45.8172 13.4866L45.8673 13.5768L45.9185 13.667L45.9708 13.7572L46.024 13.8474L46.0782 13.9377L46.1333 14.0279L46.1892 14.1181L46.246 14.2083L46.3034 14.2985L46.3616 14.3887L46.4204 14.4789L46.4799 14.5691L46.5398 14.6593L46.6002 14.7495L46.6611 14.8397L46.7224 14.9299L46.7839 15.0201L46.8457 15.1103L46.9078 15.2005L46.9699 15.2907L47.0322 15.3809L47.0945 15.4711L47.1569 15.5613L47.2191 15.6515L47.2812 15.7417L47.3431 15.8319L47.4048 15.9221L47.4662 16.0123L47.5272 16.1025L47.5878 16.1927L47.648 16.2829L47.7077 16.3731L47.7668 16.4633L47.8252 16.5535L47.883 16.6437L47.9401 16.7339L47.9964 16.8241L48.0519 16.9143L48.1065 17.0045L48.1601 17.0947L48.2128 17.1849L48.2645 17.2751L48.3151 17.3653L48.3646 17.4555L48.4129 17.5457L48.46 17.6359L48.5059 17.7261L48.5505 17.8163L48.5937 17.9065L48.6357 17.9967L48.6762 18.0869L48.7152 18.1771L48.7528 18.2673L48.7889 18.3575L48.8234 18.4477L48.8564 18.5379L48.8877 18.6281L48.9175 18.7183L48.9456 18.8085L48.972 18.8987L48.9967 18.9889L49.0196 19.0791L49.0408 19.1693L49.0603 19.2595L49.0779 19.3497L49.0938 19.4399L49.1079 19.5301L49.1201 19.6203L49.1305 19.7105L49.139 19.8007L49.1457 19.8909L49.1505 19.9811L49.1535 20.0713L49.1545 20.1615L49.1538 20.2517L49.1511 20.3419L49.1466 20.4321L49.1402 20.5223L49.132 20.6125L49.1219 20.7027L49.1099 20.7929L49.0962 20.8831L49.0806 20.9733L49.0632 21.0635L49.044 21.1537L49.0231 21.2439L49.0004 21.3341L48.976 21.4243L48.9499 21.5145L48.9221 21.6047L48.8926 21.6949L48.8615 21.7851L48.8288 21.8753L48.7945 21.9655L48.7586 22.0557L48.7213 22.1459L48.6825 22.2361L48.6422 22.3263L48.6005 22.4165L48.5575 22.5067L48.5131 22.5969L48.4674 22.6871L48.4205 22.7773L48.3723 22.8675L48.323 22.9577L48.2726 23.0479L48.2211 23.1381L48.1686 23.2283L48.1151 23.3185L48.0606 23.4087L48.0053 23.4989L47.9491 23.5891L47.8922 23.6793L47.8345 23.7695L47.7761 23.8597L47.7171 23.9499L47.6576 24.0401L47.5975 24.1303L47.5369 24.2205L47.4759 24.3107L47.4146 24.4009L47.353 24.4911L47.2911 24.5813L47.229 24.6715L47.1668 24.7617L47.1045 24.8519L47.0422 24.9421L46.9799 25.0323L46.9177 25.1225L46.8556 25.2127L46.7937 25.3029L46.7321 25.3931L46.6708 25.4833L46.6099 25.5735L46.5494 25.6637L46.4894 25.7539L46.4299 25.8441L46.3709 25.9343L46.3127 26.0245L46.2551 26.1147L46.1982 26.2049L46.1421 26.2951L46.0869 26.3853L46.0326 26.4755L45.9792 26.5657L45.9268 26.6559L45.8754 26.7461L45.8251 26.8363L45.7759 26.9265L45.7279 27.0167L45.6812 27.1069L45.6356 27.1971L45.5914 27.2873L45.5485 27.3775L45.507 27.4677L45.4669 27.5579L45.4283 27.6481L45.3911 27.7383L45.3554 27.8285L45.3213 27.9187L45.2888 28.0089L45.2579 28.0991L45.2286 28.1893L45.201 28.2795L45.1751 28.3697L45.1509 28.4599L45.1284 28.5501L45.1077 28.6403L45.0887 28.7305L45.0716 28.8207L45.0562 28.9109L45.0427 29.0011L45.031 29.0913L45.0211 29.1815L45.0131 29.2717L45.0069 29.3619L45.0026 29.4521L45.0002 29.5424L44.9997 29.6326L45.001 29.7228L45.0041 29.813L45.0092 29.9032L45.0161 29.9934L45.0249 30.0836L45.0355 30.1738L45.0479 30.264L45.0622 30.3542L45.0783 30.4444L45.0961 30.5346L45.1158 30.6248L45.1372 30.715L45.1604 30.8052L45.1853 30.8954L45.2119 30.9856L45.2402 31.0758L45.2701 31.166L45.3017 31.2562L45.3348 31.3464L45.3696 31.4366L45.4058 31.5268L45.4436 31.617L45.4828 31.7072L45.5235 31.7974L45.5656 31.8876L45.609 31.9778L45.6538 32.068L45.6998 32.1582L45.7471 32.2484L45.7955 32.3386L45.8451 32.4288L45.8959 32.519L45.9477 32.6092L46.0005 32.6994L46.0543 32.7896L46.109 32.8798L46.1645 32.97L46.2209 33.0602L46.2781 33.1504L46.336 33.2406L46.3945 33.3308L46.4537 33.421L46.5134 33.5112L46.5736 33.6014L46.6343 33.6916L46.6954 33.7818L46.7568 33.872L46.8185 33.9622L46.8805 34.0524L46.9426 34.1426L47.0048 34.2328L47.0672 34.323L47.1295 34.4132L47.1917 34.5034L47.2539 34.5936L47.3159 34.6838L47.3777 34.774L47.4392 34.8642L47.5004 34.9544L47.5613 35.0446L47.6216 35.1348L47.6815 35.225L47.7409 35.3152L47.7996 35.4054L47.8577 35.4956L47.9151 35.5858L47.9718 35.676L48.0276 35.7662L48.0826 35.8564L48.1367 35.9466L48.1898 36.0368L48.2419 36.127L48.293 36.2172L48.343 36.3074L48.3918 36.3976L48.4394 36.4878L48.4859 36.578L48.531 36.6682L48.5749 36.7584L48.6174 36.8486L48.6585 36.9388L48.6982 37.029L48.7365 37.1192L48.7732 37.2094L48.8084 37.2996L48.8421 37.3898L48.8742 37.48L48.9046 37.5702L48.9334 37.6604L48.9606 37.7506L48.986 37.8408L49.0097 37.931L49.0317 38.0212L49.052 38.1114L49.0704 38.2016L49.0871 38.2918L49.1019 38.382L49.1149 38.4722L49.1261 38.5624L49.1355 38.6526L49.143 38.7428L49.1486 38.833L49.1524 38.9232L49.1543 39.0134L49.1543 39.1036L49.1525 39.1938L49.1488 39.284L49.1432 39.3742L49.1358 39.4644L49.1265 39.5546L49.1154 39.6448L49.1024 39.735L49.0877 39.8252L49.0711 39.9154L49.0527 40.0056L49.0325 40.0958L49.0106 40.186L48.9869 40.2762L48.9616 40.3664L48.9345 40.4566L48.9057 40.5468L48.8754 40.637L48.8433 40.7272L48.8097 40.8174L48.7746 40.9076L48.7379 40.9978L48.6997 41.088L48.6601 41.1782L48.619 41.2684L48.5765 41.3586L48.5327 41.4488L48.4876 41.539L48.4412 41.6292L48.3936 41.7194L48.3448 41.8096L48.2949 41.8998L48.2439 41.99L48.1918 42.0802L48.1387 42.1704L48.0847 42.2606L48.0297 42.3508L47.9739 42.441L47.9173 42.5312L47.8599 42.6214L47.8019 42.7116L47.7431 42.8018L47.6838 42.892L47.6239 42.9822L47.5636 43.0724L47.5028 43.1626L47.4416 43.2528L47.3801 43.343L47.3183 43.4332L47.2563 43.5234L47.1941 43.6136L47.1319 43.7038L47.0695 43.794L47.0072 43.8842L46.945 43.9744L46.8829 44.0646L46.8209 44.1548L46.7592 44.245L46.6977 44.3352L46.6366 44.4254L46.5759 44.5156L46.5157 44.6058L46.4559 44.696L46.3968 44.7862L46.3382 44.8764L46.2803 44.9666L46.2231 45.0568L46.1667 45.1471L46.1111 45.2373L46.0563 45.3275L46.0025 45.4177L45.9497 45.5079L45.8978 45.5981L45.8471 45.6883L45.7974 45.7785L45.7489 45.8687L45.7016 45.9589L45.6555 46.0491L45.6107 46.1393L45.5672 46.2295L45.5251 46.3197L45.4844 46.4099L45.4451 46.5001L45.4072 46.5903L45.3709 46.6805L45.3361 46.7707L45.3029 46.8609L45.2713 46.9511L45.2413 47.0413L45.213 47.1315L45.1863 47.2217L45.1613 47.3119L45.1381 47.4021L45.1166 47.4923L45.0969 47.5825L45.0789 47.6727L45.0628 47.7629L45.0484 47.8531L45.0359 47.9433L45.0252 48.0335L45.0164 48.1237L45.0094 48.2139L45.0043 48.3041L45.0011 48.3943L44.9997 48.4845L45.0002 48.5747L45.0025 48.6649L45.0067 48.7551L45.0128 48.8453L45.0208 48.9355L45.0306 49.0257L45.0422 49.1159L45.0557 49.2061L45.071 49.2963L45.0881 49.3865L45.1069 49.4767L45.1276 49.5669L45.15 49.6571L45.1742 49.7473L45.2 49.8375L45.2276 49.9277L45.2568 50.0179L45.2876 50.1081L45.3201 50.1983L45.3541 50.2885L45.3897 50.3787L45.4268 50.4689L45.4654 50.5591L45.5055 50.6493L45.5469 50.7395L45.5898 50.8297L45.6339 50.9199L45.6794 51.0101L45.7261 51.1003L45.7741 51.1905L45.8232 51.2807L45.8734 51.3709L45.9248 51.4611L45.9771 51.5513L46.0305 51.6415L46.0848 51.7317L46.14 51.8219L46.196 51.9121L46.2529 52.0023L46.3104 52.0925L46.3687 52.1827L46.4276 52.2729L46.4871 52.3631L46.5471 52.4533L46.6076 52.5435L46.6685 52.6337L46.7298 52.7239L46.7914 52.8141L46.8532 52.9043L46.9153 52.9945L46.9775 53.0847L47.0398 53.1749L47.1021 53.2651L47.1644 53.3553L47.2266 53.4455L47.2887 53.5357L47.3506 53.6259L47.4122 53.7161L47.4736 53.8063L47.5346 53.8965L47.5952 53.9867L47.6553 54.0769L47.7149 54.1671L47.7739 54.2573L47.8323 54.3475L47.89 54.4377L47.947 54.5279L48.0032 54.6181L48.0585 54.7083L48.113 54.7985L48.1665 54.8887L48.2191 54.9789L48.2707 55.0691L48.3211 55.1593L48.3705 55.2495L48.4186 55.3397L48.4656 55.4299L48.5114 55.5201L48.5558 55.6103L48.5989 55.7005L48.6406 55.7907L48.681 55.8809L48.7198 55.9711L48.7572 56.0613L48.7931 56.1515L48.8275 56.2417L48.8603 56.3319L48.8914 56.4221L48.921 56.5123L48.9488 56.6025L48.975 56.6927L48.9995 56.7829L49.0223 56.8731L49.0433 56.9633L49.0625 57.0535L49.08 57.1437L49.0956 57.2339L49.1094 57.3241L49.1214 57.4143L49.1316 57.5045L49.1399 57.5947L49.1464 57.6849L49.151 57.7751L49.1537 57.8653L49.1545 57.9555L49.1535 58.0457L49.1506 58.1359L49.1459 58.2261L49.1393 58.3163L49.1308 58.4065L49.1205 58.4967L49.1084 58.5869L49.0944 58.6771L49.0786 58.7673L49.061 58.8575L49.0416 58.9477L49.0205 59.0379L48.9976 59.1281L48.9729 59.2183L48.9466 59.3085L48.9186 59.3987L48.8889 59.4889L48.8576 59.5791L48.8247 59.6693L48.7902 59.7595L48.7542 59.8497L48.7167 59.9399L48.6777 60.0301L48.6372 60.1203L48.5954 60.2105L48.5522 60.3007L48.5076 60.3909L48.4618 60.4811L48.4147 60.5713L48.3664 60.6615L48.317 60.7517L48.2664 60.842L48.2148 60.9322L48.1622 61.0224L48.1085 61.1126L48.054 61.2028L47.9985 61.293L47.9423 61.3832L47.8852 61.4734L47.8275 61.5636L47.769 61.6538L47.7099 61.744L47.6503 61.8342L47.5902 61.9244L47.5295 62.0146L47.4685 62.1048L47.4071 62.195L47.3455 62.2852L47.2836 62.3754L47.2215 62.4656L47.1592 62.5558L47.0969 62.646" stroke="url(#paint4_linear_14_2)" stroke-width="2"/>
<path d="M71.8427 52.2112L71.8427 70.0994" stroke="#B99859" stroke-width="3" stroke-linecap="round"/>
<path d="M67.3705 52.2112L67.3705 70.0994" stroke="#B99859" stroke-width="3" stroke-linecap="round"/>
<path d="M62.8983 52.2112L62.8983 70.0994" stroke="#B99859" stroke-width="3" stroke-linecap="round"/>
<path d="M58.4268 52.2112L58.4268 70.0994" stroke="#B99859" stroke-width="3" stroke-linecap="round"/>
<path d="M53.9546 52.2112L53.9546 70.0994" stroke="#B99859" stroke-width="3" stroke-linecap="round"/>
<path d="M49.4824 52.2112L49.4824 70.0994" stroke="#B99859" stroke-width="3" stroke-linecap="round"/>
<path d="M50.5744 70.0994L70.7262 70.0994C71.9182 70.0994 72.854 71.1359 72.7368 72.3222C72.4456 75.2691 72.0521 78.6246 70.7247 81.2795C69.3349 84.059 66.0157 86.2253 65.1346 87.9876C64.0727 90.1113 63.347 111.398 62.9575 124.067C62.9243 125.148 62.0392 126 60.9583 126L60.365 126C59.2848 126 58.4001 125.149 58.3645 124.07C57.9545 111.638 57.039 89.6845 56.1905 87.9876C55.0725 85.7515 52.2775 84.6335 50.6004 81.2795C49.2484 78.5753 48.8653 75.3867 48.5723 72.2995C48.4605 71.1215 49.3912 70.0994 50.5744 70.0994Z" stroke="#B99859" stroke-width="3"/>
<path d="M16.6151 71.0661L34.877 71.0661C35.6242 71.0662 36.2298 71.6805 36.2298 72.4383L36.2298 124.581C36.2298 125.339 35.6242 125.953 34.8771 125.953L16.6151 125.953C15.868 125.953 15.2624 125.339 15.2623 124.581L15.2623 122.523C15.2624 121.765 15.868 121.151 16.6151 121.151L24.0551 121.151C24.8023 121.151 25.4079 120.536 25.408 119.779L25.408 118.406C25.4079 117.649 24.8023 117.034 24.0552 117.034L16.6151 117.034C15.868 117.034 15.2624 116.42 15.2624 115.662L15.2623 114.29C15.2623 113.532 15.868 112.918 16.615 112.918L24.0551 112.918C24.8023 112.918 25.408 112.303 25.4079 111.545L25.4079 110.173C25.4079 109.415 24.8022 108.801 24.0551 108.801L16.615 108.801C15.868 108.801 15.2623 108.187 15.2623 107.429L15.2623 106.057C15.2623 105.299 15.868 104.685 16.615 104.685L24.0551 104.685C24.8023 104.685 25.4079 104.07 25.4079 103.312L25.4079 101.94C25.408 101.182 24.8023 100.568 24.0551 100.568L16.6151 100.568C15.868 100.568 15.2623 99.9537 15.2624 99.1958L15.2624 97.8237C15.2623 97.0658 15.868 96.4514 16.6151 96.4515L24.0552 96.4515C24.8023 96.4515 25.408 95.8371 25.408 95.0793L25.4079 93.7071C25.4079 92.9493 24.8023 92.335 24.0551 92.3349L16.615 92.3349C15.868 92.3349 15.2624 91.7206 15.2623 90.9627L15.2623 89.5906C15.2623 88.8328 15.868 88.2184 16.615 88.2184L24.0551 88.2184C24.8022 88.2184 25.4079 87.604 25.4079 86.8462L25.4079 85.4741C25.408 84.7162 24.8023 84.1018 24.0551 84.1019L16.615 84.1019C15.868 84.1019 15.2623 83.4875 15.2623 82.7297L15.2623 81.3576C15.2624 80.5997 15.868 79.9854 16.6151 79.9853L24.0551 79.9854C24.8023 79.9853 25.4079 79.371 25.408 78.6131L25.408 77.241C25.4079 76.4831 24.8023 75.8688 24.0552 75.8688L16.6151 75.8688C15.868 75.8687 15.2624 75.2544 15.2624 74.4966L15.2623 72.4384C15.2624 71.6805 15.868 71.0662 16.6151 71.0661Z" stroke="#B99859" stroke-width="3"/>
</g>
<defs>
<linearGradient id="paint0_linear_14_2" x1="65.775" y1="62.646" x2="65.775" y2="6" gradientUnits="userSpaceOnUse">
<stop stop-color="#B99859" stop-opacity="0"/>
<stop offset="1" stop-color="#B99859"/>
</linearGradient>
<linearGradient id="paint1_linear_14_2" x1="74.084" y1="60.8381" x2="73.3846" y2="5.98243" gradientUnits="userSpaceOnUse">
<stop stop-color="#B99859" stop-opacity="0"/>
<stop offset="1" stop-color="#B99859"/>
</linearGradient>
<linearGradient id="paint2_linear_14_2" x1="63.6979" y1="65.659" x2="61.5952" y2="5.8548" gradientUnits="userSpaceOnUse">
<stop stop-color="#B99859" stop-opacity="0"/>
<stop offset="1" stop-color="#B99859"/>
</linearGradient>
<linearGradient id="paint3_linear_14_2" x1="55.3866" y1="62.646" x2="53.9865" y2="5.93199" gradientUnits="userSpaceOnUse">
<stop stop-color="#B99859" stop-opacity="0"/>
<stop offset="0.0001" stop-color="#B99859" stop-opacity="0"/>
<stop offset="1" stop-color="#B99859"/>
</linearGradient>
<linearGradient id="paint4_linear_14_2" x1="47.0771" y1="66.2617" x2="46.3776" y2="5.98401" gradientUnits="userSpaceOnUse">
<stop stop-color="#B99859" stop-opacity="0"/>
<stop offset="1" stop-color="#B99859"/>
</linearGradient>
<clipPath id="clip0_14_2">
<rect width="90" height="135" fill="white"/>
</clipPath>
</defs>
</svg>
