<svg width="145" height="89" viewBox="0 0 145 89" fill="none" xmlns="http://www.w3.org/2000/svg">
<path d="M33.7067 81.6821V78.3152H32.8345V85.9013H33.7067V82.4304H38.2342V85.9013H39.1065V78.3152H38.2342V81.6821H33.7067ZM44.3193 78.3152H43.5508L40.2279 85.9013H41.1417L41.9725 83.9475H45.9392L46.7699 85.9013H47.6629L44.3193 78.3152ZM45.6277 83.2201H42.284L43.9454 79.3336L45.6277 83.2201ZM49.6567 78.3152H48.7845V85.9013H49.6567V78.3152ZM56.5103 83.3448C56.3025 82.7629 55.9911 82.472 55.5549 82.4096C56.531 82.1186 57.071 81.4119 57.071 80.4351C57.071 79.0634 56.1572 78.3152 54.5373 78.3152H51.5258V85.9013H52.3982V82.5967H54.2881C55.0149 82.5967 55.3887 82.7629 55.6173 83.3864L56.5518 85.9013H57.4656L56.5103 83.3448ZM52.3982 79.0426H54.4542C55.6587 79.0426 56.1987 79.4999 56.1987 80.4351C56.1987 81.3912 55.6173 81.8692 54.4542 81.8692H52.3982V79.0426Z" fill="#B99859"/>
<path d="M63.8387 78.1167C64.3542 78.1167 64.7602 78.2489 65.0567 78.5133C65.3595 78.7713 65.511 79.1357 65.511 79.6065C65.511 80.0128 65.3789 80.3579 65.1147 80.6416C64.8569 80.9253 64.5282 81.1833 64.1287 81.4155L65.9943 83.2149C66.1619 83.0149 66.2972 82.786 66.4004 82.528C66.5099 82.2636 66.6002 81.9798 66.671 81.6767H67.5313C67.4282 82.0895 67.2993 82.4732 67.1447 82.8279C66.99 83.1826 66.7902 83.4922 66.5453 83.7566L67.9567 85.1303H66.8063L65.9653 84.3177C65.6625 84.5886 65.3242 84.8079 64.9504 84.9755C64.5765 85.1432 64.1222 85.227 63.5874 85.227C62.9235 85.227 62.3952 85.0626 62.002 84.7337C61.6089 84.4047 61.4124 83.9372 61.4124 83.3309C61.4124 82.8344 61.5445 82.4378 61.8087 82.1411C62.0794 81.838 62.4435 81.5574 62.901 81.2994C62.6948 81.0672 62.5015 80.8189 62.321 80.5545C62.147 80.2901 62.06 79.9806 62.06 79.6258C62.06 79.1486 62.2179 78.7777 62.5337 78.5133C62.8559 78.2489 63.2909 78.1167 63.8387 78.1167ZM63.8097 78.8132C63.539 78.8132 63.3167 78.8841 63.1427 79.0261C62.9752 79.168 62.8914 79.3646 62.8914 79.6162C62.8914 79.8483 62.9525 80.0644 63.075 80.2643C63.1975 80.4578 63.3747 80.6738 63.6067 80.9125C63.9869 80.6932 64.2575 80.4868 64.4187 80.2933C64.5862 80.0934 64.67 79.8645 64.67 79.6065C64.67 79.3743 64.5927 79.184 64.438 79.0357C64.2834 78.8874 64.0739 78.8132 63.8097 78.8132ZM63.4134 81.8315C63.0654 82.0378 62.7915 82.2475 62.5917 82.4603C62.3984 82.6731 62.3017 82.9537 62.3017 83.3019C62.3017 83.6567 62.4209 83.9404 62.6594 84.1532C62.8978 84.3661 63.2168 84.4725 63.6163 84.4725C64.0288 84.4725 64.3832 84.4048 64.6797 84.2693C64.9762 84.1339 65.2242 83.9726 65.424 83.7856L63.4134 81.8315Z" fill="#B99859"/>
<path d="M77.1709 83.8436C77.1709 82.9084 76.6517 82.2433 75.8003 82.0147C76.5479 81.7237 76.9841 81.121 76.9841 80.3104C76.9841 79.0426 76.091 78.3152 74.5334 78.3152H71.5012V85.9013H74.658C76.2571 85.9013 77.1709 85.153 77.1709 83.8436ZM74.4088 79.0426C75.551 79.0426 76.1325 79.4791 76.1325 80.3519C76.1325 81.2249 75.551 81.6821 74.4088 81.6821H72.3734V79.0426H74.4088ZM76.2987 83.8228C76.2987 84.7374 75.7587 85.1738 74.5749 85.1738H72.3734V82.4304H74.5749C75.7379 82.4304 76.2987 82.8876 76.2987 83.8228ZM83.8168 85.1738H79.9124V82.4304H83.6091V81.6821H79.9124V79.0426H83.8168V78.3152H79.0401V85.9013H83.8168V85.1738ZM89.0296 78.3152H88.2612L84.9383 85.9013H85.8521L86.6828 83.9475H90.6495L91.4803 85.9013H92.3733L89.0296 78.3152ZM90.338 83.2201H86.9943L88.6558 79.3336L90.338 83.2201ZM93.4325 82.9292C93.4325 84.9452 94.4709 85.9844 96.4438 85.9844C98.4173 85.9844 99.4555 84.9244 99.4555 82.9292V78.3152H98.5826V83.0123C98.5826 84.4879 97.8557 85.2362 96.4438 85.2362C95.0316 85.2362 94.3047 84.4879 94.3047 83.0123V78.3152H93.4325V82.9292ZM103.982 79.0634H106.62V78.3152H100.452V79.0634H103.09V85.9013H103.982V79.0634ZM109.984 82.0563L107.575 78.3152H106.558L109.528 82.8253V85.9013H110.4V82.8461L113.37 78.3152H112.373L109.984 82.0563Z" fill="#B99859"/>
<path d="M11.3448 66.8894C10.6024 66.8894 9.72077 66.8546 8.69997 66.7849C8.32877 66.7617 7.86477 66.7385 7.30797 66.7152C6.77437 66.692 6.17117 66.6804 5.49837 66.6804L2.92317 66.7152C2.45917 66.7385 1.83277 66.7501 1.04397 66.7501C0.997565 66.7501 0.974365 66.6804 0.974365 66.5411C0.974365 66.4018 0.997565 66.3322 1.04397 66.3322C1.78637 66.3322 2.33157 66.2741 2.67957 66.158C3.02757 66.0419 3.25957 65.8214 3.37557 65.4963C3.51477 65.1481 3.58437 64.6257 3.58437 63.9292V47.8047C3.58437 47.1082 3.51477 46.5974 3.37557 46.2723C3.25957 45.9473 3.02757 45.7267 2.67957 45.6106C2.35477 45.4713 1.83277 45.4017 1.11357 45.4017C1.04397 45.4017 1.00917 45.332 1.00917 45.1927C1.00917 45.0534 1.04397 44.9838 1.11357 44.9838L2.95797 45.0186C4.02517 45.065 4.87197 45.0883 5.49837 45.0883C6.44957 45.0883 7.42397 45.0534 8.42157 44.9838C9.62797 44.9373 10.44 44.9141 10.8576 44.9141C13.2008 44.9141 15.2772 45.3785 17.0868 46.3072C18.9196 47.2359 20.3348 48.5012 21.3324 50.1032C22.33 51.7052 22.8288 53.5046 22.8288 55.5013C22.8288 57.7533 22.3068 59.75 21.2628 61.4913C20.242 63.2094 18.85 64.5444 17.0868 65.4963C15.3468 66.425 13.4328 66.8894 11.3448 66.8894ZM10.9968 66.0884C12.4816 66.0884 13.7924 65.7169 14.9292 64.9739C16.066 64.2078 16.9476 63.0817 17.574 61.5958C18.2236 60.1099 18.5484 58.3338 18.5484 56.2674C18.5484 54.2939 18.2468 52.5062 17.6436 50.9042C17.0404 49.279 16.182 48.002 15.0684 47.0733C13.9548 46.1446 12.6672 45.6803 11.2056 45.6803C9.76717 45.6803 8.78117 45.8196 8.24757 46.0982C7.71397 46.3768 7.44717 46.9689 7.44717 47.8743V63.5461C7.44717 64.4748 7.69077 65.1365 8.17797 65.5312C8.66517 65.9026 9.60477 66.0884 10.9968 66.0884ZM49.1751 66.3322C49.2215 66.3322 49.2447 66.4018 49.2447 66.5411C49.2447 66.6804 49.2215 66.7501 49.1751 66.7501H42.9807C42.4703 66.7501 41.5191 65.7982 40.1271 63.8943C38.7351 61.9673 37.0531 59.2857 35.0811 55.8495C34.8955 55.8727 34.6287 55.8843 34.2807 55.8843C33.3759 55.8843 32.7379 55.8727 32.3667 55.8495V63.9292C32.3667 64.6489 32.4247 65.1713 32.5407 65.4963C32.6567 65.8214 32.8771 66.0419 33.2019 66.158C33.5499 66.2741 34.0951 66.3322 34.8375 66.3322C34.8839 66.3322 34.9071 66.4018 34.9071 66.5411C34.9071 66.6804 34.8839 66.7501 34.8375 66.7501C34.0719 66.7501 33.4687 66.7385 33.0279 66.7152L30.3831 66.6804L27.8427 66.7152C27.3787 66.7385 26.7523 66.7501 25.9635 66.7501C25.8939 66.7501 25.8591 66.6804 25.8591 66.5411C25.8591 66.4018 25.8939 66.3322 25.9635 66.3322C26.7059 66.3322 27.2395 66.2741 27.5643 66.158C27.9123 66.0419 28.1443 65.8214 28.2603 65.4963C28.3995 65.1481 28.4691 64.6257 28.4691 63.9292V47.8047C28.4691 47.1082 28.4111 46.5974 28.2951 46.2723C28.1791 45.9473 27.9471 45.7267 27.5991 45.6106C27.2511 45.4713 26.7175 45.4017 25.9983 45.4017C25.9519 45.4017 25.9287 45.332 25.9287 45.1927C25.9287 45.0534 25.9519 44.9838 25.9983 44.9838L27.8427 45.0186C28.9099 45.065 29.7567 45.0883 30.3831 45.0883C31.0559 45.0883 31.7983 45.0534 32.6103 44.9838C32.8655 44.9606 33.1903 44.9373 33.5847 44.9141C34.0023 44.8909 34.4895 44.8793 35.0463 44.8793C37.1807 44.8793 38.8279 45.274 39.9879 46.0634C41.1711 46.8296 41.7627 47.9092 41.7627 49.3022C41.7627 50.3702 41.4379 51.3918 40.7883 52.3669C40.1387 53.342 39.2919 54.1314 38.2479 54.7351C40.1039 57.6605 41.6583 59.9474 42.9111 61.5958C44.1871 63.2442 45.3123 64.4516 46.2867 65.2177C47.2843 65.9607 48.2471 66.3322 49.1751 66.3322ZM32.3667 54.8396C32.9235 54.9324 33.5963 54.9789 34.3851 54.9789C35.2203 54.9789 35.8815 54.8512 36.3687 54.5958C36.8559 54.3404 37.2039 53.8993 37.4127 53.2724C37.6447 52.6455 37.7607 51.7632 37.7607 50.6256C37.7607 48.7218 37.4823 47.41 36.9255 46.6902C36.3687 45.9705 35.5683 45.6106 34.5243 45.6106C33.7355 45.6106 33.1787 45.7848 32.8539 46.133C32.5291 46.4813 32.3667 47.0617 32.3667 47.8743V54.8396ZM52.4895 67.1332C51.8399 67.1332 51.3179 66.9474 50.9235 66.5759C50.5523 66.1812 50.3667 65.6589 50.3667 65.0088C50.3667 64.4051 50.5523 63.9176 50.9235 63.5461C51.3179 63.1746 51.8399 62.9889 52.4895 62.9889C53.1391 62.9889 53.6379 63.1746 53.9859 63.5461C54.3571 63.8943 54.5427 64.3819 54.5427 65.0088C54.5427 65.6821 54.3571 66.2045 53.9859 66.5759C53.6379 66.9474 53.1391 67.1332 52.4895 67.1332ZM81.5138 66.3322C81.5834 66.3322 81.6182 66.4018 81.6182 66.5411C81.6182 66.6804 81.5834 66.7501 81.5138 66.7501C80.7018 66.7501 80.0522 66.7385 79.565 66.7152L76.8854 66.6804L73.7534 66.7152C73.3358 66.7385 72.7674 66.7501 72.0482 66.7501C71.9786 66.7501 71.9438 66.6804 71.9438 66.5411C71.9438 66.4018 71.9786 66.3322 72.0482 66.3322C72.9066 66.3322 73.533 66.2741 73.9274 66.158C74.3218 66.0419 74.5886 65.8214 74.7279 65.4963C74.8671 65.1713 74.9366 64.6489 74.9366 63.9292V55.9192H63.6962V63.9292C63.6962 64.6257 63.7659 65.1481 63.905 65.4963C64.0442 65.8214 64.311 66.0419 64.7054 66.158C65.0998 66.2741 65.7262 66.3322 66.5846 66.3322C66.631 66.3322 66.6542 66.4018 66.6542 66.5411C66.6542 66.6804 66.631 66.7501 66.5846 66.7501C65.7726 66.7501 65.123 66.7385 64.6358 66.7152L61.6082 66.6804L58.9982 66.7152C58.5342 66.7385 57.8962 66.7501 57.0842 66.7501C57.0378 66.7501 57.0146 66.6804 57.0146 66.5411C57.0146 66.4018 57.0378 66.3322 57.0842 66.3322C57.8962 66.3322 58.4878 66.2741 58.859 66.158C59.2302 66.0419 59.4854 65.8214 59.6246 65.4963C59.7638 65.1481 59.8335 64.6257 59.8335 63.9292V47.8047C59.8335 47.1082 59.7638 46.5974 59.6246 46.2723C59.4854 45.9473 59.2302 45.7267 58.859 45.6106C58.511 45.4713 57.9426 45.4017 57.1538 45.4017C57.0842 45.4017 57.0494 45.332 57.0494 45.1927C57.0494 45.0534 57.0842 44.9838 57.1538 44.9838L59.033 45.0186C60.1002 45.065 60.9586 45.0883 61.6082 45.0883C62.4898 45.0883 63.5106 45.065 64.6706 45.0186L66.5846 44.9838C66.631 44.9838 66.6542 45.0534 66.6542 45.1927C66.6542 45.332 66.631 45.4017 66.5846 45.4017C65.7494 45.4017 65.1346 45.4713 64.7402 45.6106C64.3458 45.7499 64.0674 45.9937 63.905 46.342C63.7659 46.667 63.6962 47.1778 63.6962 47.8743V54.944H74.9366V47.8743C74.9366 47.1778 74.8671 46.667 74.7279 46.342C74.5886 45.9937 74.3218 45.7499 73.9274 45.6106C73.533 45.4713 72.9066 45.4017 72.0482 45.4017C71.9786 45.4017 71.9438 45.332 71.9438 45.1927C71.9438 45.0534 71.9786 44.9838 72.0482 44.9838L73.7534 45.0186C74.9134 45.065 75.9574 45.0883 76.8854 45.0883C77.5118 45.0883 78.405 45.065 79.565 45.0186L81.5138 44.9838C81.5834 44.9838 81.6182 45.0534 81.6182 45.1927C81.6182 45.332 81.5834 45.4017 81.5138 45.4017C80.725 45.4017 80.1334 45.4713 79.739 45.6106C79.3678 45.7267 79.1126 45.9473 78.9734 46.2723C78.8574 46.5974 78.7994 47.1082 78.7994 47.8047V63.9292C78.7994 64.6257 78.8574 65.1481 78.9734 65.4963C79.1126 65.8214 79.3678 66.0419 79.739 66.158C80.1102 66.2741 80.7018 66.3322 81.5138 66.3322ZM107.568 66.3322C107.684 66.3322 107.742 66.4018 107.742 66.5411C107.742 66.6804 107.684 66.7501 107.568 66.7501C107.104 66.7501 106.385 66.7269 105.41 66.6804C104.389 66.634 103.659 66.6108 103.218 66.6108C102.638 66.6108 101.93 66.634 101.095 66.6804C100.306 66.7269 99.6797 66.7501 99.2157 66.7501C99.1229 66.7501 99.0765 66.6804 99.0765 66.5411C99.0765 66.4018 99.1229 66.3322 99.2157 66.3322C99.8189 66.3322 100.248 66.2741 100.503 66.158C100.782 66.0187 100.921 65.7866 100.921 65.4615C100.921 65.0668 100.689 64.4051 100.225 63.4764L96.6055 56.3371H90.4111L87.9403 61.8048C87.6387 62.4781 87.4879 63.1049 87.4879 63.6854C87.4879 64.5212 87.7779 65.1713 88.3579 65.6356C88.9611 66.1 89.7615 66.3322 90.7591 66.3322C90.8751 66.3322 90.9331 66.4018 90.9331 66.5411C90.9331 66.6804 90.8751 66.7501 90.7591 66.7501C90.3415 66.7501 89.7383 66.7269 88.9495 66.6804C88.0679 66.634 87.3023 66.6108 86.6527 66.6108C86.0263 66.6108 85.2723 66.634 84.3907 66.6804C83.6019 66.7269 82.9639 66.7501 82.4767 66.7501C82.3839 66.7501 82.3375 66.6804 82.3375 66.5411C82.3375 66.4018 82.3839 66.3322 82.4767 66.3322C83.1263 66.3322 83.6715 66.2045 84.1123 65.9491C84.5531 65.6705 84.9939 65.1945 85.4347 64.5212C85.8755 63.8247 86.3975 62.8031 87.0007 61.4565L94.5523 44.8445C94.5987 44.7748 94.7031 44.74 94.8655 44.74C95.0511 44.74 95.1555 44.7748 95.1787 44.8445L103.879 61.9789C104.691 63.6273 105.364 64.765 105.897 65.3919C106.431 66.0187 106.988 66.3322 107.568 66.3322ZM90.8635 55.3619H96.1183L93.3344 49.8594L90.8635 55.3619ZM115.426 63.9292C115.426 64.6489 115.484 65.1713 115.6 65.4963C115.716 65.8214 115.936 66.0419 116.261 66.158C116.609 66.2741 117.154 66.3322 117.897 66.3322C117.966 66.3322 118.001 66.4018 118.001 66.5411C118.001 66.6804 117.966 66.7501 117.897 66.7501C117.131 66.7501 116.528 66.7385 116.087 66.7152L113.442 66.6804L110.867 66.7152C110.403 66.7385 109.777 66.7501 108.988 66.7501C108.941 66.7501 108.918 66.6804 108.918 66.5411C108.918 66.4018 108.941 66.3322 108.988 66.3322C109.73 66.3322 110.275 66.2741 110.623 66.158C110.971 66.0419 111.203 65.8214 111.319 65.4963C111.459 65.1481 111.528 64.6257 111.528 63.9292V47.8047C111.528 47.1082 111.459 46.5974 111.319 46.2723C111.203 45.9473 110.971 45.7267 110.623 45.6106C110.275 45.4713 109.73 45.4017 108.988 45.4017C108.941 45.4017 108.918 45.332 108.918 45.1927C108.918 45.0534 108.941 44.9838 108.988 44.9838L110.867 45.0186C111.934 45.065 112.793 45.0883 113.442 45.0883C114.161 45.0883 115.055 45.065 116.122 45.0186L117.897 44.9838C117.966 44.9838 118.001 45.0534 118.001 45.1927C118.001 45.332 117.966 45.4017 117.897 45.4017C117.177 45.4017 116.644 45.4713 116.296 45.6106C115.948 45.7499 115.716 45.9937 115.6 46.342C115.484 46.667 115.426 47.1778 115.426 47.8743V63.9292ZM144.059 66.3322C144.106 66.3322 144.129 66.4018 144.129 66.5411C144.129 66.6804 144.106 66.7501 144.059 66.7501H137.865C137.355 66.7501 136.403 65.7982 135.011 63.8943C133.619 61.9673 131.937 59.2857 129.965 55.8495C129.78 55.8727 129.513 55.8843 129.165 55.8843C128.26 55.8843 127.622 55.8727 127.251 55.8495V63.9292C127.251 64.6489 127.309 65.1713 127.425 65.4963C127.541 65.8214 127.761 66.0419 128.086 66.158C128.434 66.2741 128.979 66.3322 129.722 66.3322C129.768 66.3322 129.791 66.4018 129.791 66.5411C129.791 66.6804 129.768 66.7501 129.722 66.7501C128.956 66.7501 128.353 66.7385 127.912 66.7152L125.267 66.6804L122.727 66.7152C122.263 66.7385 121.637 66.7501 120.848 66.7501C120.778 66.7501 120.743 66.6804 120.743 66.5411C120.743 66.4018 120.778 66.3322 120.848 66.3322C121.59 66.3322 122.124 66.2741 122.449 66.158C122.797 66.0419 123.029 65.8214 123.145 65.4963C123.284 65.1481 123.353 64.6257 123.353 63.9292V47.8047C123.353 47.1082 123.295 46.5974 123.179 46.2723C123.063 45.9473 122.831 45.7267 122.483 45.6106C122.135 45.4713 121.602 45.4017 120.883 45.4017C120.836 45.4017 120.813 45.332 120.813 45.1927C120.813 45.0534 120.836 44.9838 120.883 44.9838L122.727 45.0186C123.794 45.065 124.641 45.0883 125.267 45.0883C125.94 45.0883 126.683 45.0534 127.495 44.9838C127.75 44.9606 128.075 44.9373 128.469 44.9141C128.887 44.8909 129.374 44.8793 129.931 44.8793C132.065 44.8793 133.712 45.274 134.872 46.0634C136.055 46.8296 136.647 47.9092 136.647 49.3022C136.647 50.3702 136.322 51.3918 135.673 52.3669C135.023 53.342 134.176 54.1314 133.132 54.7351C134.988 57.6605 136.543 59.9474 137.795 61.5958C139.071 63.2442 140.197 64.4516 141.171 65.2177C142.169 65.9607 143.131 66.3322 144.059 66.3322ZM127.251 54.8396C127.808 54.9324 128.481 54.9789 129.269 54.9789C130.105 54.9789 130.766 54.8512 131.253 54.5958C131.74 54.3404 132.088 53.8993 132.297 53.2724C132.529 52.6455 132.645 51.7632 132.645 50.6256C132.645 48.7218 132.367 47.41 131.81 46.6902C131.253 45.9705 130.453 45.6106 129.409 45.6106C128.62 45.6106 128.063 45.7848 127.738 46.133C127.413 46.4813 127.251 47.0617 127.251 47.8743V54.8396Z" fill="#B99859"/>
<path d="M11.3448 66.8894C10.6024 66.8894 9.72077 66.8546 8.69997 66.7849C8.32877 66.7617 7.86477 66.7385 7.30797 66.7152C6.77437 66.692 6.17117 66.6804 5.49837 66.6804L2.92317 66.7152C2.45917 66.7385 1.83277 66.7501 1.04397 66.7501C0.997565 66.7501 0.974365 66.6804 0.974365 66.5411C0.974365 66.4018 0.997565 66.3322 1.04397 66.3322C1.78637 66.3322 2.33157 66.2741 2.67957 66.158C3.02757 66.0419 3.25957 65.8214 3.37557 65.4963C3.51477 65.1481 3.58437 64.6257 3.58437 63.9292V47.8047C3.58437 47.1082 3.51477 46.5974 3.37557 46.2723C3.25957 45.9473 3.02757 45.7267 2.67957 45.6106C2.35477 45.4713 1.83277 45.4017 1.11357 45.4017C1.04397 45.4017 1.00917 45.332 1.00917 45.1927C1.00917 45.0534 1.04397 44.9838 1.11357 44.9838L2.95797 45.0186C4.02517 45.065 4.87197 45.0883 5.49837 45.0883C6.44957 45.0883 7.42397 45.0534 8.42157 44.9838C9.62797 44.9373 10.44 44.9141 10.8576 44.9141C13.2008 44.9141 15.2772 45.3785 17.0868 46.3072C18.9196 47.2359 20.3348 48.5012 21.3324 50.1032C22.33 51.7052 22.8288 53.5046 22.8288 55.5013C22.8288 57.7533 22.3068 59.75 21.2628 61.4913C20.242 63.2094 18.85 64.5444 17.0868 65.4963C15.3468 66.425 13.4328 66.8894 11.3448 66.8894ZM10.9968 66.0884C12.4816 66.0884 13.7924 65.7169 14.9292 64.9739C16.066 64.2078 16.9476 63.0817 17.574 61.5958C18.2236 60.1099 18.5484 58.3338 18.5484 56.2674C18.5484 54.2939 18.2468 52.5062 17.6436 50.9042C17.0404 49.279 16.182 48.002 15.0684 47.0733C13.9548 46.1446 12.6672 45.6803 11.2056 45.6803C9.76717 45.6803 8.78117 45.8196 8.24757 46.0982C7.71397 46.3768 7.44717 46.9689 7.44717 47.8743V63.5461C7.44717 64.4748 7.69077 65.1365 8.17797 65.5312C8.66517 65.9026 9.60477 66.0884 10.9968 66.0884ZM49.1751 66.3322C49.2215 66.3322 49.2447 66.4018 49.2447 66.5411C49.2447 66.6804 49.2215 66.7501 49.1751 66.7501H42.9807C42.4703 66.7501 41.5191 65.7982 40.1271 63.8943C38.7351 61.9673 37.0531 59.2857 35.0811 55.8495C34.8955 55.8727 34.6287 55.8843 34.2807 55.8843C33.3759 55.8843 32.7379 55.8727 32.3667 55.8495V63.9292C32.3667 64.6489 32.4247 65.1713 32.5407 65.4963C32.6567 65.8214 32.8771 66.0419 33.2019 66.158C33.5499 66.2741 34.0951 66.3322 34.8375 66.3322C34.8839 66.3322 34.9071 66.4018 34.9071 66.5411C34.9071 66.6804 34.8839 66.7501 34.8375 66.7501C34.0719 66.7501 33.4687 66.7385 33.0279 66.7152L30.3831 66.6804L27.8427 66.7152C27.3787 66.7385 26.7523 66.7501 25.9635 66.7501C25.8939 66.7501 25.8591 66.6804 25.8591 66.5411C25.8591 66.4018 25.8939 66.3322 25.9635 66.3322C26.7059 66.3322 27.2395 66.2741 27.5643 66.158C27.9123 66.0419 28.1443 65.8214 28.2603 65.4963C28.3995 65.1481 28.4691 64.6257 28.4691 63.9292V47.8047C28.4691 47.1082 28.4111 46.5974 28.2951 46.2723C28.1791 45.9473 27.9471 45.7267 27.5991 45.6106C27.2511 45.4713 26.7175 45.4017 25.9983 45.4017C25.9519 45.4017 25.9287 45.332 25.9287 45.1927C25.9287 45.0534 25.9519 44.9838 25.9983 44.9838L27.8427 45.0186C28.9099 45.065 29.7567 45.0883 30.3831 45.0883C31.0559 45.0883 31.7983 45.0534 32.6103 44.9838C32.8655 44.9606 33.1903 44.9373 33.5847 44.9141C34.0023 44.8909 34.4895 44.8793 35.0463 44.8793C37.1807 44.8793 38.8279 45.274 39.9879 46.0634C41.1711 46.8296 41.7627 47.9092 41.7627 49.3022C41.7627 50.3702 41.4379 51.3918 40.7883 52.3669C40.1387 53.342 39.2919 54.1314 38.2479 54.7351C40.1039 57.6605 41.6583 59.9474 42.9111 61.5958C44.1871 63.2442 45.3123 64.4516 46.2867 65.2177C47.2843 65.9607 48.2471 66.3322 49.1751 66.3322ZM32.3667 54.8396C32.9235 54.9324 33.5963 54.9789 34.3851 54.9789C35.2203 54.9789 35.8815 54.8512 36.3687 54.5958C36.8559 54.3404 37.2039 53.8993 37.4127 53.2724C37.6447 52.6455 37.7607 51.7632 37.7607 50.6256C37.7607 48.7218 37.4823 47.41 36.9255 46.6902C36.3687 45.9705 35.5683 45.6106 34.5243 45.6106C33.7355 45.6106 33.1787 45.7848 32.8539 46.133C32.5291 46.4813 32.3667 47.0617 32.3667 47.8743V54.8396ZM52.4895 67.1332C51.8399 67.1332 51.3179 66.9474 50.9235 66.5759C50.5523 66.1812 50.3667 65.6589 50.3667 65.0088C50.3667 64.4051 50.5523 63.9176 50.9235 63.5461C51.3179 63.1746 51.8399 62.9889 52.4895 62.9889C53.1391 62.9889 53.6379 63.1746 53.9859 63.5461C54.3571 63.8943 54.5427 64.3819 54.5427 65.0088C54.5427 65.6821 54.3571 66.2045 53.9859 66.5759C53.6379 66.9474 53.1391 67.1332 52.4895 67.1332ZM81.5138 66.3322C81.5834 66.3322 81.6182 66.4018 81.6182 66.5411C81.6182 66.6804 81.5834 66.7501 81.5138 66.7501C80.7018 66.7501 80.0522 66.7385 79.565 66.7152L76.8854 66.6804L73.7534 66.7152C73.3358 66.7385 72.7674 66.7501 72.0482 66.7501C71.9786 66.7501 71.9438 66.6804 71.9438 66.5411C71.9438 66.4018 71.9786 66.3322 72.0482 66.3322C72.9066 66.3322 73.533 66.2741 73.9274 66.158C74.3218 66.0419 74.5886 65.8214 74.7279 65.4963C74.8671 65.1713 74.9366 64.6489 74.9366 63.9292V55.9192H63.6962V63.9292C63.6962 64.6257 63.7659 65.1481 63.905 65.4963C64.0442 65.8214 64.311 66.0419 64.7054 66.158C65.0998 66.2741 65.7262 66.3322 66.5846 66.3322C66.631 66.3322 66.6542 66.4018 66.6542 66.5411C66.6542 66.6804 66.631 66.7501 66.5846 66.7501C65.7726 66.7501 65.123 66.7385 64.6358 66.7152L61.6082 66.6804L58.9982 66.7152C58.5342 66.7385 57.8962 66.7501 57.0842 66.7501C57.0378 66.7501 57.0146 66.6804 57.0146 66.5411C57.0146 66.4018 57.0378 66.3322 57.0842 66.3322C57.8962 66.3322 58.4878 66.2741 58.859 66.158C59.2302 66.0419 59.4854 65.8214 59.6246 65.4963C59.7638 65.1481 59.8335 64.6257 59.8335 63.9292V47.8047C59.8335 47.1082 59.7638 46.5974 59.6246 46.2723C59.4854 45.9473 59.2302 45.7267 58.859 45.6106C58.511 45.4713 57.9426 45.4017 57.1538 45.4017C57.0842 45.4017 57.0494 45.332 57.0494 45.1927C57.0494 45.0534 57.0842 44.9838 57.1538 44.9838L59.033 45.0186C60.1002 45.065 60.9586 45.0883 61.6082 45.0883C62.4898 45.0883 63.5106 45.065 64.6706 45.0186L66.5846 44.9838C66.631 44.9838 66.6542 45.0534 66.6542 45.1927C66.6542 45.332 66.631 45.4017 66.5846 45.4017C65.7494 45.4017 65.1346 45.4713 64.7402 45.6106C64.3458 45.7499 64.0674 45.9937 63.905 46.342C63.7659 46.667 63.6962 47.1778 63.6962 47.8743V54.944H74.9366V47.8743C74.9366 47.1778 74.8671 46.667 74.7279 46.342C74.5886 45.9937 74.3218 45.7499 73.9274 45.6106C73.533 45.4713 72.9066 45.4017 72.0482 45.4017C71.9786 45.4017 71.9438 45.332 71.9438 45.1927C71.9438 45.0534 71.9786 44.9838 72.0482 44.9838L73.7534 45.0186C74.9134 45.065 75.9574 45.0883 76.8854 45.0883C77.5118 45.0883 78.405 45.065 79.565 45.0186L81.5138 44.9838C81.5834 44.9838 81.6182 45.0534 81.6182 45.1927C81.6182 45.332 81.5834 45.4017 81.5138 45.4017C80.725 45.4017 80.1334 45.4713 79.739 45.6106C79.3678 45.7267 79.1126 45.9473 78.9734 46.2723C78.8574 46.5974 78.7994 47.1082 78.7994 47.8047V63.9292C78.7994 64.6257 78.8574 65.1481 78.9734 65.4963C79.1126 65.8214 79.3678 66.0419 79.739 66.158C80.1102 66.2741 80.7018 66.3322 81.5138 66.3322ZM107.568 66.3322C107.684 66.3322 107.742 66.4018 107.742 66.5411C107.742 66.6804 107.684 66.7501 107.568 66.7501C107.104 66.7501 106.385 66.7269 105.41 66.6804C104.389 66.634 103.659 66.6108 103.218 66.6108C102.638 66.6108 101.93 66.634 101.095 66.6804C100.306 66.7269 99.6797 66.7501 99.2157 66.7501C99.1229 66.7501 99.0765 66.6804 99.0765 66.5411C99.0765 66.4018 99.1229 66.3322 99.2157 66.3322C99.8189 66.3322 100.248 66.2741 100.503 66.158C100.782 66.0187 100.921 65.7866 100.921 65.4615C100.921 65.0668 100.689 64.4051 100.225 63.4764L96.6055 56.3371H90.4111L87.9403 61.8048C87.6387 62.4781 87.4879 63.1049 87.4879 63.6854C87.4879 64.5212 87.7779 65.1713 88.3579 65.6356C88.9611 66.1 89.7615 66.3322 90.7591 66.3322C90.8751 66.3322 90.9331 66.4018 90.9331 66.5411C90.9331 66.6804 90.8751 66.7501 90.7591 66.7501C90.3415 66.7501 89.7383 66.7269 88.9495 66.6804C88.0679 66.634 87.3023 66.6108 86.6527 66.6108C86.0263 66.6108 85.2723 66.634 84.3907 66.6804C83.6019 66.7269 82.9639 66.7501 82.4767 66.7501C82.3839 66.7501 82.3375 66.6804 82.3375 66.5411C82.3375 66.4018 82.3839 66.3322 82.4767 66.3322C83.1263 66.3322 83.6715 66.2045 84.1123 65.9491C84.5531 65.6705 84.9939 65.1945 85.4347 64.5212C85.8755 63.8247 86.3975 62.8031 87.0007 61.4565L94.5523 44.8445C94.5987 44.7748 94.7031 44.74 94.8655 44.74C95.0511 44.74 95.1555 44.7748 95.1787 44.8445L103.879 61.9789C104.691 63.6273 105.364 64.765 105.897 65.3919C106.431 66.0187 106.988 66.3322 107.568 66.3322ZM90.8635 55.3619H96.1183L93.3344 49.8594L90.8635 55.3619ZM115.426 63.9292C115.426 64.6489 115.484 65.1713 115.6 65.4963C115.716 65.8214 115.936 66.0419 116.261 66.158C116.609 66.2741 117.154 66.3322 117.897 66.3322C117.966 66.3322 118.001 66.4018 118.001 66.5411C118.001 66.6804 117.966 66.7501 117.897 66.7501C117.131 66.7501 116.528 66.7385 116.087 66.7152L113.442 66.6804L110.867 66.7152C110.403 66.7385 109.777 66.7501 108.988 66.7501C108.941 66.7501 108.918 66.6804 108.918 66.5411C108.918 66.4018 108.941 66.3322 108.988 66.3322C109.73 66.3322 110.275 66.2741 110.623 66.158C110.971 66.0419 111.203 65.8214 111.319 65.4963C111.459 65.1481 111.528 64.6257 111.528 63.9292V47.8047C111.528 47.1082 111.459 46.5974 111.319 46.2723C111.203 45.9473 110.971 45.7267 110.623 45.6106C110.275 45.4713 109.73 45.4017 108.988 45.4017C108.941 45.4017 108.918 45.332 108.918 45.1927C108.918 45.0534 108.941 44.9838 108.988 44.9838L110.867 45.0186C111.934 45.065 112.793 45.0883 113.442 45.0883C114.161 45.0883 115.055 45.065 116.122 45.0186L117.897 44.9838C117.966 44.9838 118.001 45.0534 118.001 45.1927C118.001 45.332 117.966 45.4017 117.897 45.4017C117.177 45.4017 116.644 45.4713 116.296 45.6106C115.948 45.7499 115.716 45.9937 115.6 46.342C115.484 46.667 115.426 47.1778 115.426 47.8743V63.9292ZM144.059 66.3322C144.106 66.3322 144.129 66.4018 144.129 66.5411C144.129 66.6804 144.106 66.7501 144.059 66.7501H137.865C137.355 66.7501 136.403 65.7982 135.011 63.8943C133.619 61.9673 131.937 59.2857 129.965 55.8495C129.78 55.8727 129.513 55.8843 129.165 55.8843C128.26 55.8843 127.622 55.8727 127.251 55.8495V63.9292C127.251 64.6489 127.309 65.1713 127.425 65.4963C127.541 65.8214 127.761 66.0419 128.086 66.158C128.434 66.2741 128.979 66.3322 129.722 66.3322C129.768 66.3322 129.791 66.4018 129.791 66.5411C129.791 66.6804 129.768 66.7501 129.722 66.7501C128.956 66.7501 128.353 66.7385 127.912 66.7152L125.267 66.6804L122.727 66.7152C122.263 66.7385 121.637 66.7501 120.848 66.7501C120.778 66.7501 120.743 66.6804 120.743 66.5411C120.743 66.4018 120.778 66.3322 120.848 66.3322C121.59 66.3322 122.124 66.2741 122.449 66.158C122.797 66.0419 123.029 65.8214 123.145 65.4963C123.284 65.1481 123.353 64.6257 123.353 63.9292V47.8047C123.353 47.1082 123.295 46.5974 123.179 46.2723C123.063 45.9473 122.831 45.7267 122.483 45.6106C122.135 45.4713 121.602 45.4017 120.883 45.4017C120.836 45.4017 120.813 45.332 120.813 45.1927C120.813 45.0534 120.836 44.9838 120.883 44.9838L122.727 45.0186C123.794 45.065 124.641 45.0883 125.267 45.0883C125.94 45.0883 126.683 45.0534 127.495 44.9838C127.75 44.9606 128.075 44.9373 128.469 44.9141C128.887 44.8909 129.374 44.8793 129.931 44.8793C132.065 44.8793 133.712 45.274 134.872 46.0634C136.055 46.8296 136.647 47.9092 136.647 49.3022C136.647 50.3702 136.322 51.3918 135.673 52.3669C135.023 53.342 134.176 54.1314 133.132 54.7351C134.988 57.6605 136.543 59.9474 137.795 61.5958C139.071 63.2442 140.197 64.4516 141.171 65.2177C142.169 65.9607 143.131 66.3322 144.059 66.3322ZM127.251 54.8396C127.808 54.9324 128.481 54.9789 129.269 54.9789C130.105 54.9789 130.766 54.8512 131.253 54.5958C131.74 54.3404 132.088 53.8993 132.297 53.2724C132.529 52.6455 132.645 51.7632 132.645 50.6256C132.645 48.7218 132.367 47.41 131.81 46.6902C131.253 45.9705 130.453 45.6106 129.409 45.6106C128.62 45.6106 128.063 45.7848 127.738 46.133C127.413 46.4813 127.251 47.0617 127.251 47.8743V54.8396Z" fill="url(#paint0_linear_1_75)"/>
<path d="M69.8185 35.8051C69.8185 35.4078 70.6337 33.8683 72.2642 31.1867C71.1016 31.1867 70.3289 31.2364 69.9461 31.3357C69.3081 31.4918 68.8332 31.811 68.5212 32.2934C68.4078 32.4495 68.3086 32.5346 68.2235 32.5488C68.1526 32.563 68.1172 32.5346 68.1172 32.4637C68.1172 32.3786 68.1455 32.3077 68.2022 32.2509C68.741 31.5273 69.2726 31.0307 69.7972 30.7611C70.3218 30.4915 71.1512 30.3567 72.2854 30.3567C72.4556 30.3567 72.6257 30.3567 72.7958 30.3567C73.6607 29.0372 74.8729 27.0792 76.4324 24.4827C77.0137 23.3902 77.3044 22.5034 77.3044 21.8224C77.3044 20.7299 76.638 20.1766 75.3053 20.1623C75.2202 20.1623 75.1422 20.1623 75.0714 20.1623C73.2567 20.1623 71.6049 20.6163 70.1162 21.5244C68.6276 22.4325 67.4508 23.5605 66.586 24.9084C65.7211 26.2562 65.2887 27.4693 65.2887 28.5477C65.2887 29.8672 65.9054 30.527 67.1389 30.527C68.1172 30.527 68.9536 30.0943 69.6484 29.2287C70.3431 28.3632 70.6904 27.5404 70.6904 26.76C70.6904 26.3201 70.577 25.9583 70.3502 25.6745C70.3218 25.6462 70.3076 25.6107 70.3076 25.5681C70.3076 25.4688 70.3644 25.4192 70.4778 25.4192C70.5345 25.4192 70.577 25.4404 70.6054 25.483C70.8889 25.8519 71.0307 26.2917 71.0307 26.8025C71.0307 27.668 70.6762 28.5548 69.9674 29.4628C69.2585 30.3567 68.5142 30.8533 67.7344 30.9526C67.4934 30.9952 67.2594 31.0165 67.0326 31.0165C66.1252 31.0165 65.4234 30.7256 64.9272 30.1439C64.4451 29.6189 64.2041 28.9095 64.2041 28.0156C64.2041 27.6468 64.2466 27.2707 64.3317 26.8877C64.757 24.9722 65.9834 23.298 68.0108 21.865C70.0524 20.432 72.3422 19.7154 74.88 19.7154C75.8582 19.7154 76.6947 19.9282 77.3894 20.3539C78.0983 20.7653 78.4528 21.3471 78.4528 22.0991C78.4528 22.851 78.1905 23.6456 77.6659 24.4827L73.8166 30.3993C74.2703 30.4135 75.0784 30.4844 76.241 30.6121C77.4178 30.7256 78.2968 30.7824 78.8781 30.7824C79.4736 30.7824 79.8706 30.7753 80.069 30.7611L80.8772 29.4203C82.2524 27.1075 83.8403 24.9509 85.6409 22.9504C87.4556 20.9356 89.0365 19.6871 90.3834 19.2046C90.4259 19.1904 90.4684 19.1833 90.511 19.1833C90.6103 19.1833 90.6598 19.2401 90.6598 19.3536C90.6598 19.3962 90.6386 19.4317 90.596 19.46C89.6886 19.9708 88.3843 21.2123 86.683 23.1845C84.9958 25.1425 83.5355 27.1573 82.302 29.2287L81.4726 30.6334C82.1248 30.5483 82.5927 30.3851 82.8762 30.1439C82.933 30.1013 82.9826 30.1297 83.0251 30.229C83.0676 30.3142 83.0606 30.378 83.0038 30.4206C82.5785 30.7469 81.976 30.981 81.1962 31.1229C80.2037 32.9674 79.7075 34.2657 79.7075 35.0176C79.7075 35.5 79.9131 35.7412 80.3242 35.7412C80.6078 35.7412 80.9339 35.6419 81.3025 35.4433C81.6853 35.2588 81.9405 35.0957 82.0681 34.9538C82.1957 34.8261 82.2737 34.7622 82.302 34.7622C82.3304 34.7622 82.3375 34.8048 82.3233 34.8899C82.3091 34.9893 82.2808 35.0672 82.2382 35.124C81.9972 35.3511 81.6357 35.5922 81.1536 35.8476C80.6716 36.103 80.2817 36.2307 79.984 36.2307C79.6862 36.2307 79.4665 36.1811 79.3247 36.0817C78.871 35.7838 78.6442 35.2659 78.6442 34.5281C78.6442 33.7903 79.0199 32.712 79.7713 31.2932C79.2467 31.3357 78.7576 31.357 78.3039 31.357C78.148 31.357 76.482 31.3074 73.3062 31.208C72.2996 32.7972 71.4915 34.2444 70.8818 35.5497C70.6975 35.9328 70.4707 36.1243 70.2013 36.1243C69.9461 36.1243 69.8185 36.0179 69.8185 35.8051Z" fill="#9A7C43"/>
<path d="M59.9179 24.3782C58.1032 25.7816 56.7731 26.4832 55.9275 26.4832C55.4739 26.4832 55.1336 26.2562 54.9067 25.8022C54.7006 25.3688 54.5974 24.8941 54.5974 24.3782C54.5974 23.3876 55.0099 21.9016 55.8347 19.9204C56.6803 17.9392 57.4846 16.9486 58.2475 16.9486C58.6393 16.9486 58.9694 17.7225 59.2374 19.2703C59.5262 20.8182 59.8148 21.9429 60.1035 22.6446C61.5059 21.1587 63.5371 18.6822 66.1974 15.215C69.5382 10.8192 71.7551 8.41491 72.8481 8.00216C73.2193 7.8577 73.6008 7.78546 73.9926 7.78546C74.3844 7.78546 74.7041 7.86801 74.9515 8.03311C75.2196 8.19822 75.3537 8.40459 75.3537 8.65224C75.3537 9.00309 75.0547 9.20946 74.4566 9.27137C73.7348 9.66349 72.6212 10.6129 71.1158 12.1194C69.6104 13.5847 68.404 14.957 67.4966 16.2366C65.29 19.3116 63.0216 21.8191 60.6913 23.759C61.8462 25.472 63.6609 26.3284 66.1355 26.3284C66.4036 26.3284 66.8057 26.3078 67.3419 26.2665C73.075 25.7299 77.1375 23.2431 79.5297 18.806C80.499 17.0311 80.9835 15.2769 80.9835 13.5434C80.9835 11.8098 80.3545 10.2516 79.0966 8.86894C78.0861 7.73387 76.9828 7.03218 75.7867 6.7639C74.6113 6.49561 73.4049 6.36146 72.1675 6.36146C68.9918 6.36146 66.0633 7.0941 63.3825 8.55937C60.5572 10.1072 59.1446 11.8408 59.1446 13.7601C59.1446 14.276 59.2787 14.6991 59.5467 15.0293C59.8355 15.3595 60.0313 15.5452 60.1345 15.5865H59.9489C59.4127 15.4833 58.9384 15.215 58.5259 14.7816C58.0723 14.245 57.8454 13.6776 57.8454 13.079C57.8454 11.0153 59.1343 9.24042 61.7121 7.7545C64.3105 6.26859 67.3523 5.52563 70.8374 5.52563C72.4459 5.52563 74.0958 5.71137 75.7867 6.08285C77.4777 6.45433 79.0142 7.34175 80.3958 8.74511C81.9838 10.3962 82.7777 12.2638 82.7777 14.3482C82.7777 15.8961 82.324 17.4955 81.4166 19.1465C79.8494 21.9945 77.5087 24.0789 74.3947 25.3997C71.8995 26.4522 69.2083 26.9785 66.3211 26.9785C63.434 26.9785 61.2996 26.1117 59.9179 24.3782ZM55.711 24.2543C55.711 24.8941 55.8347 25.4513 56.0822 25.926C56.9689 25.5339 58.0414 24.7187 59.2993 23.4804C58.7012 22.4898 58.3198 21.7159 58.1547 21.1587C58.0104 20.5809 57.9073 19.8275 57.8454 18.8989C56.4225 20.942 55.711 22.7271 55.711 24.2543ZM60.1345 15.5865C60.1551 15.5865 60.1758 15.5762 60.1963 15.5555C60.1963 15.5969 60.186 15.6175 60.1654 15.6175C60.1654 15.6175 60.1551 15.6071 60.1345 15.5865Z" fill="#B99859"/>
<path d="M59.9179 24.3782C58.1032 25.7816 56.7731 26.4832 55.9275 26.4832C55.4739 26.4832 55.1336 26.2562 54.9067 25.8022C54.7006 25.3688 54.5974 24.8941 54.5974 24.3782C54.5974 23.3876 55.0099 21.9016 55.8347 19.9204C56.6803 17.9392 57.4846 16.9486 58.2475 16.9486C58.6393 16.9486 58.9694 17.7225 59.2374 19.2703C59.5262 20.8182 59.8148 21.9429 60.1035 22.6446C61.5059 21.1587 63.5371 18.6822 66.1974 15.215C69.5382 10.8192 71.7551 8.41491 72.8481 8.00216C73.2193 7.8577 73.6008 7.78546 73.9926 7.78546C74.3844 7.78546 74.7041 7.86801 74.9515 8.03311C75.2196 8.19822 75.3537 8.40459 75.3537 8.65224C75.3537 9.00309 75.0547 9.20946 74.4566 9.27137C73.7348 9.66349 72.6212 10.6129 71.1158 12.1194C69.6104 13.5847 68.404 14.957 67.4966 16.2366C65.29 19.3116 63.0216 21.8191 60.6913 23.759C61.8462 25.472 63.6609 26.3284 66.1355 26.3284C66.4036 26.3284 66.8057 26.3078 67.3419 26.2665C73.075 25.7299 77.1375 23.2431 79.5297 18.806C80.499 17.0311 80.9835 15.2769 80.9835 13.5434C80.9835 11.8098 80.3545 10.2516 79.0966 8.86894C78.0861 7.73387 76.9828 7.03218 75.7867 6.7639C74.6113 6.49561 73.4049 6.36146 72.1675 6.36146C68.9918 6.36146 66.0633 7.0941 63.3825 8.55937C60.5572 10.1072 59.1446 11.8408 59.1446 13.7601C59.1446 14.276 59.2787 14.6991 59.5467 15.0293C59.8355 15.3595 60.0313 15.5452 60.1345 15.5865H59.9489C59.4127 15.4833 58.9384 15.215 58.5259 14.7816C58.0723 14.245 57.8454 13.6776 57.8454 13.079C57.8454 11.0153 59.1343 9.24042 61.7121 7.7545C64.3105 6.26859 67.3523 5.52563 70.8374 5.52563C72.4459 5.52563 74.0958 5.71137 75.7867 6.08285C77.4777 6.45433 79.0142 7.34175 80.3958 8.74511C81.9838 10.3962 82.7777 12.2638 82.7777 14.3482C82.7777 15.8961 82.324 17.4955 81.4166 19.1465C79.8494 21.9945 77.5087 24.0789 74.3947 25.3997C71.8995 26.4522 69.2083 26.9785 66.3211 26.9785C63.434 26.9785 61.2996 26.1117 59.9179 24.3782ZM55.711 24.2543C55.711 24.8941 55.8347 25.4513 56.0822 25.926C56.9689 25.5339 58.0414 24.7187 59.2993 23.4804C58.7012 22.4898 58.3198 21.7159 58.1547 21.1587C58.0104 20.5809 57.9073 19.8275 57.8454 18.8989C56.4225 20.942 55.711 22.7271 55.711 24.2543ZM60.1345 15.5865C60.1551 15.5865 60.1758 15.5762 60.1963 15.5555C60.1963 15.5969 60.186 15.6175 60.1654 15.6175C60.1654 15.6175 60.1551 15.6071 60.1345 15.5865Z" fill="url(#paint1_linear_1_75)"/>
<defs>
<linearGradient id="paint0_linear_1_75" x1="2.85211" y1="43.1872" x2="84.1922" y2="65.4708" gradientUnits="userSpaceOnUse">
<stop stop-color="#B99859"/>
<stop offset="0.473958" stop-color="#FCE3B4"/>
<stop offset="1" stop-color="#B99859"/>
</linearGradient>
<linearGradient id="paint1_linear_1_75" x1="54.7077" y1="7.60083" x2="72.2494" y2="8.66517" gradientUnits="userSpaceOnUse">
<stop stop-color="#B99859"/>
<stop offset="0.473958" stop-color="#FCE3B4"/>
<stop offset="1" stop-color="#B99859"/>
</linearGradient>
</defs>
</svg>
