<?xml version="1.0" encoding="UTF-8"?>
<!DOCTYPE svg PUBLIC "-//W3C//DTD SVG 1.1//EN" "http://www.w3.org/Graphics/SVG/1.1/DTD/svg11.dtd">
<!-- Creator: CorelDRAW 2020 (64-Bit) -->
<svg xmlns="http://www.w3.org/2000/svg" xml:space="preserve" width="10.16mm" height="10.16mm" version="1.1" style="shape-rendering:geometricPrecision; text-rendering:geometricPrecision; image-rendering:optimizeQuality; fill-rule:evenodd; clip-rule:evenodd"
viewBox="0 0 1016 1016"
 xmlns:xlink="http://www.w3.org/1999/xlink"
 xmlns:xodm="http://www.corel.com/coreldraw/odm/2003">
 <defs>
  <style type="text/css">
   <![CDATA[
    .fil0 {fill:#9A7C43;fill-rule:nonzero}
    .fil1 {fill:#B99859;fill-rule:nonzero}
    .fil2 {fill:url(#id0);fill-rule:nonzero}
   ]]>
  </style>
  <linearGradient id="id0" gradientUnits="userSpaceOnUse" x1="15.13" y1="140.81" x2="491.38" y2="167.27">
   <stop offset="0" style="stop-opacity:1; stop-color:#B99859"/>
   <stop offset="0.470588" style="stop-opacity:1; stop-color:#FCE3B4"/>
   <stop offset="1" style="stop-opacity:1; stop-color:#B99859"/>
  </linearGradient>
 </defs>
 <g id="Слой_x0020_1">
  <metadata id="CorelCorpID_0Corel-Layer"/>
  <g id="_1799725489136">
   <path class="fil0" d="M433.65 902.94c0,-10.51 21.57,-51.25 64.71,-122.2 -30.76,0 -51.2,1.32 -61.33,3.94 -16.88,4.13 -29.45,12.58 -37.7,25.34 -3,4.13 -5.63,6.39 -7.88,6.76 -1.87,0.38 -2.81,-0.37 -2.81,-2.25 0,-2.25 0.75,-4.13 2.25,-5.63 14.25,-19.15 28.32,-32.29 42.2,-39.42 13.88,-7.13 35.82,-10.7 65.83,-10.7 4.51,0 9.01,0 13.51,0 22.88,-34.91 54.95,-86.72 96.21,-155.41 15.38,-28.91 23.08,-52.37 23.08,-70.39 0,-28.91 -17.64,-43.55 -52.9,-43.92 -2.25,0 -4.31,0 -6.19,0 -48.01,0 -91.71,12.01 -131.1,36.03 -39.39,24.03 -70.52,53.88 -93.4,89.54 -22.89,35.66 -34.33,67.76 -34.33,96.29 0,34.91 16.32,52.37 48.95,52.37 25.89,0 48.02,-11.45 66.4,-34.35 18.38,-22.9 27.57,-44.67 27.57,-65.32 0,-11.64 -3,-21.21 -9,-28.72 -0.75,-0.75 -1.13,-1.69 -1.13,-2.82 0,-2.62 1.51,-3.94 4.51,-3.94 1.5,0 2.62,0.56 3.37,1.69 7.5,9.76 11.25,21.4 11.25,34.91 0,22.9 -9.37,46.37 -28.13,70.39 -18.75,23.65 -38.45,36.79 -59.08,39.42 -6.38,1.13 -12.57,1.69 -18.57,1.69 -24.01,0 -42.58,-7.7 -55.7,-23.09 -12.76,-13.89 -19.14,-32.66 -19.14,-56.31 0,-9.76 1.13,-19.71 3.38,-29.84 11.25,-50.68 43.7,-94.98 97.34,-132.89 54.02,-37.92 114.6,-56.88 181.75,-56.88 25.88,0 48.01,5.63 66.4,16.89 18.75,10.89 28.13,26.28 28.13,46.18 0,19.89 -6.94,40.92 -20.82,63.07l-101.84 156.54c12,0.37 33.38,2.25 64.14,5.63 31.14,3 54.39,4.51 69.77,4.51 15.76,0 26.26,-0.19 31.51,-0.57l21.39 -35.47c36.38,-61.2 78.4,-118.26 126.04,-171.19 48.01,-53.3 89.84,-86.34 125.47,-99.1 1.13,-0.38 2.25,-0.57 3.38,-0.57 2.63,0 3.94,1.51 3.94,4.51 0,1.13 -0.56,2.06 -1.69,2.81 -24.01,13.52 -58.52,46.37 -103.53,98.55 -44.64,51.8 -83.28,105.11 -115.92,159.92l-21.94 37.16c17.26,-2.25 29.64,-6.57 37.14,-12.95 1.5,-1.13 2.81,-0.37 3.94,2.25 1.12,2.26 0.94,3.95 -0.57,5.07 -11.25,8.64 -27.19,14.83 -47.82,18.58 -26.26,48.81 -39.39,83.16 -39.39,103.05 0,12.76 5.44,19.15 16.32,19.15 7.5,0 16.13,-2.63 25.88,-7.89 10.13,-4.88 16.88,-9.19 20.26,-12.95 3.37,-3.38 5.44,-5.07 6.18,-5.07 0.76,0 0.94,1.13 0.57,3.38 -0.38,2.63 -1.13,4.69 -2.25,6.2 -6.38,6.01 -15.94,12.38 -28.7,19.14 -12.75,6.76 -23.07,10.14 -30.95,10.14 -7.88,0 -13.69,-1.31 -17.44,-3.94 -12,-7.89 -18,-21.59 -18,-41.11 0,-19.52 9.94,-48.05 29.82,-85.59 -13.88,1.12 -26.82,1.69 -38.83,1.69 -4.12,0 -48.2,-1.31 -132.23,-3.94 -26.63,42.04 -48.01,80.33 -64.14,114.87 -4.88,10.14 -10.88,15.2 -18.01,15.2 -6.75,0 -10.13,-2.81 -10.13,-8.44z"/>
   <path class="fil1" d="M171.7 600.6c-48.02,37.13 -83.21,55.7 -105.58,55.7 -12,0 -21.01,-6.01 -27.01,-18.02 -5.45,-11.47 -8.18,-24.03 -8.18,-37.68 0,-26.21 10.91,-65.53 32.73,-117.95 22.38,-52.41 43.66,-78.62 63.84,-78.62 10.37,0 19.1,20.47 26.19,61.42 7.64,40.96 15.28,70.72 22.92,89.28 37.1,-39.31 90.85,-104.84 161.23,-196.57 88.4,-116.31 147.05,-179.92 175.97,-190.84 9.82,-3.82 19.92,-5.74 30.28,-5.74 10.37,0 18.83,2.19 25.37,6.56 7.1,4.37 10.64,9.83 10.64,16.38 0,9.28 -7.91,14.74 -23.73,16.38 -19.1,10.37 -48.56,35.49 -88.39,75.35 -39.83,38.77 -71.75,75.08 -95.76,108.94 -58.38,81.36 -118.4,147.7 -180.06,199.03 30.56,45.32 78.57,67.98 144.05,67.98 7.09,0 17.73,-0.55 31.92,-1.64 151.68,-14.2 259.17,-79.99 322.46,-197.39 25.65,-46.96 38.47,-93.37 38.47,-139.24 0,-45.87 -16.64,-87.1 -49.92,-123.68 -26.74,-30.03 -55.93,-48.6 -87.58,-55.69 -31.1,-7.1 -63.02,-10.65 -95.76,-10.65 -84.02,0 -161.5,19.38 -232.43,58.15 -74.76,40.95 -112.13,86.82 -112.13,137.6 0,13.65 3.55,24.85 10.64,33.58 7.64,8.74 12.82,13.65 15.55,14.75l-4.91 0c-14.19,-2.73 -26.74,-9.83 -37.65,-21.3 -12,-14.2 -18.01,-29.21 -18.01,-45.05 0,-54.6 34.11,-101.56 102.31,-140.87 68.75,-39.32 149.23,-58.98 241.44,-58.98 42.56,0 86.21,4.92 130.95,14.75 44.74,9.82 85.39,33.3 121.95,70.44 42.02,43.68 63.02,93.09 63.02,148.24 0,40.96 -12,83.28 -36.01,126.96 -41.47,75.35 -103.4,130.5 -185.79,165.45 -66.02,27.85 -137.22,41.77 -213.61,41.77 -76.39,0 -132.86,-22.93 -169.42,-68.8zm-111.31 -3.28c0,16.93 3.27,31.67 9.82,44.23 23.46,-10.37 51.84,-31.94 85.12,-64.7 -15.82,-26.21 -25.91,-46.69 -30.28,-61.43 -3.82,-15.29 -6.55,-35.22 -8.19,-59.79 -37.64,54.05 -56.47,101.29 -56.47,141.69zm117.04 -229.33c0.54,0 1.09,-0.28 1.63,-0.82 0,1.09 -0.27,1.64 -0.81,1.64 0,0 -0.28,-0.28 -0.82,-0.82z"/>
   <path class="fil2" d="M171.7 600.6c-48.02,37.13 -83.21,55.7 -105.58,55.7 -12,0 -21.01,-6.01 -27.01,-18.02 -5.45,-11.47 -8.18,-24.03 -8.18,-37.68 0,-26.21 10.91,-65.53 32.73,-117.95 22.38,-52.41 43.66,-78.62 63.84,-78.62 10.37,0 19.1,20.47 26.19,61.42 7.64,40.96 15.28,70.72 22.92,89.28 37.1,-39.31 90.85,-104.84 161.23,-196.57 88.4,-116.31 147.05,-179.92 175.97,-190.84 9.82,-3.82 19.92,-5.74 30.28,-5.74 10.37,0 18.83,2.19 25.37,6.56 7.1,4.37 10.64,9.83 10.64,16.38 0,9.28 -7.91,14.74 -23.73,16.38 -19.1,10.37 -48.56,35.49 -88.39,75.35 -39.83,38.77 -71.75,75.08 -95.76,108.94 -58.38,81.36 -118.4,147.7 -180.06,199.03 30.56,45.32 78.57,67.98 144.05,67.98 7.09,0 17.73,-0.55 31.92,-1.64 151.68,-14.2 259.17,-79.99 322.46,-197.39 25.65,-46.96 38.47,-93.37 38.47,-139.24 0,-45.87 -16.64,-87.1 -49.92,-123.68 -26.74,-30.03 -55.93,-48.6 -87.58,-55.69 -31.1,-7.1 -63.02,-10.65 -95.76,-10.65 -84.02,0 -161.5,19.38 -232.43,58.15 -74.76,40.95 -112.13,86.82 -112.13,137.6 0,13.65 3.55,24.85 10.64,33.58 7.64,8.74 12.82,13.65 15.55,14.75l-4.91 0c-14.19,-2.73 -26.74,-9.83 -37.65,-21.3 -12,-14.2 -18.01,-29.21 -18.01,-45.05 0,-54.6 34.11,-101.56 102.31,-140.87 68.75,-39.32 149.23,-58.98 241.44,-58.98 42.56,0 86.21,4.92 130.95,14.75 44.74,9.82 85.39,33.3 121.95,70.44 42.02,43.68 63.02,93.09 63.02,148.24 0,40.96 -12,83.28 -36.01,126.96 -41.47,75.35 -103.4,130.5 -185.79,165.45 -66.02,27.85 -137.22,41.77 -213.61,41.77 -76.39,0 -132.86,-22.93 -169.42,-68.8zm-111.31 -3.28c0,16.93 3.27,31.67 9.82,44.23 23.46,-10.37 51.84,-31.94 85.12,-64.7 -15.82,-26.21 -25.91,-46.69 -30.28,-61.43 -3.82,-15.29 -6.55,-35.22 -8.19,-59.79 -37.64,54.05 -56.47,101.29 -56.47,141.69zm117.04 -229.33c0.54,0 1.09,-0.28 1.63,-0.82 0,1.09 -0.27,1.64 -0.81,1.64 0,0 -0.28,-0.28 -0.82,-0.82z"/>
  </g>
 </g>
</svg>
