<svg width="118" height="118" viewBox="0 0 118 118" fill="none" xmlns="http://www.w3.org/2000/svg">
<g clip-path="url(#clip0_1_241)">
<path d="M65.6798 0.165616L65.6784 0.166196L9.738 22.4451C8.54941 22.9179 7.96916 24.2651 8.44199 25.4537L8.44315 25.4563L44.4326 115.839C44.5302 116.065 44.6634 116.272 44.8263 116.454C45.0302 116.681 45.2309 116.916 45.4233 117.153C45.8484 117.677 46.4896 117.993 47.1798 118L107.405 118C108.685 118 109.722 116.963 109.722 115.684L109.722 18.396C109.722 17.1168 108.685 16.0797 107.405 16.0797L75.8692 16.0797C75.0503 16.0797 74.3142 15.5805 74.0112 14.8197L68.6896 1.45873C68.2157 0.270429 66.8681 -0.308367 65.6798 0.165616ZM103.089 20.7124C104.194 20.7124 105.089 21.6078 105.089 22.7124L105.089 111.367C105.089 112.472 104.194 113.367 103.089 113.367L51.4962 113.367C50.3916 113.367 49.4962 112.472 49.4962 111.367L49.4962 22.7124C49.4962 21.6078 50.3916 20.7124 51.4962 20.7124L103.089 20.7124ZM44.875 68.9292C44.875 71.1328 41.8328 71.7166 41.0171 69.6695L29.921 41.8228C29.6185 41.0637 29.8162 40.2035 30.3654 39.5983C33.1131 36.5705 34.7762 32.7128 35.0915 28.6363C35.1545 27.8223 35.6433 27.0886 36.402 26.787L42.1361 24.507C43.4492 23.9849 44.875 24.9523 44.875 26.3655L44.875 68.9292ZM68.4441 13.3387C68.968 14.6521 68.0005 16.0797 66.5864 16.0797L47.1798 16.0797C45.9006 16.0797 44.8635 17.1168 44.8635 18.396C44.8635 18.4184 44.8498 18.4385 44.829 18.4468L32.5357 23.3415C32.3329 23.4489 32.1243 23.5495 31.9104 23.6326C30.9803 23.9942 30.3766 24.9305 30.4603 25.952C30.8862 30.6247 28.9178 35.1958 25.2299 38.0968C24.4262 38.7479 24.1673 39.8441 24.56 40.7729C24.6453 40.9746 24.718 41.1828 24.7713 41.3953L43.6265 88.7465C43.6876 88.9024 43.765 89.0497 43.8568 89.1865C44.304 89.8531 44.8635 90.5396 44.8635 91.3424L44.8635 93.9689C44.8635 96.1728 41.8206 96.7563 41.0053 94.7088L14.3438 27.7498C13.9352 26.7236 14.4358 25.5605 15.462 25.1519L63.3905 6.06433C64.4162 5.65581 65.579 6.15584 65.9881 7.18141L68.4441 13.3387Z" fill="#B99859"/>
<path d="M89.4512 107.081C90.7806 102.583 94.2953 99.0642 98.7908 97.7294C99.7721 97.4367 100.444 96.5342 100.445 95.5103C100.444 95.4981 100.443 95.4858 100.442 95.4735C100.425 95.2616 100.43 95.0472 100.456 94.8363L100.456 39.2434C100.432 39.0557 100.428 38.8646 100.448 38.6764C100.56 37.6181 99.8753 36.614 98.8129 36.3554C98.8085 36.3546 98.8045 36.3534 98.8001 36.3525C94.3 35.0212 90.7803 31.5015 89.4489 27.0013C89.1499 26.0231 88.2451 25.3769 87.2491 25.3834C87.0187 25.3849 86.7869 25.3726 86.5581 25.3451L68.0271 25.3451C67.7981 25.372 67.5661 25.387 67.3356 25.3854C66.3395 25.3783 65.4345 26.0248 65.1363 27.0037C63.8052 31.5038 60.2841 35.0226 55.7828 36.3502C54.7917 36.6526 54.1415 37.5757 54.1626 38.5851C54.1672 38.8046 54.1552 39.0254 54.1289 39.2434L54.1289 94.8363C54.1564 95.0668 54.1708 95.3003 54.1697 95.5324C54.165 96.527 54.8107 97.4299 55.7874 97.7294C60.2867 99.0616 63.8053 102.581 65.1363 107.081C65.4353 108.059 66.3404 108.705 67.3365 108.699C67.5667 108.697 67.7983 108.709 68.0271 108.734L86.5581 108.734C86.773 108.708 86.9907 108.696 87.2071 108.701C88.2196 108.724 89.1465 108.074 89.4512 107.081ZM70.3196 104.102C69.5028 104.102 68.7773 103.6 68.418 102.867C66.6238 99.2033 63.6601 96.2396 59.9967 94.4454C59.2632 94.0861 58.7616 93.3606 58.7616 92.5438L58.7616 41.5379C58.7616 40.7212 59.263 39.9958 59.9964 39.6365C63.6599 37.8415 66.6238 34.877 68.418 31.213C68.7773 30.4794 69.5028 29.9779 70.3196 29.9779L84.2663 29.9779C85.0828 29.9779 85.8081 30.479 86.1674 31.212C87.963 34.8748 90.9267 37.8384 94.5894 39.634C95.3225 39.9934 95.8236 40.7187 95.8236 41.5351L95.8236 92.5445C95.8236 93.3609 95.3225 94.0862 94.5894 94.4456C90.9267 96.2412 87.963 99.2049 86.1674 102.868C85.8081 103.601 85.0828 104.102 84.2663 104.102L70.3196 104.102Z" fill="#B99859"/>
<path d="M91.1908 67.0398C91.1908 59.3639 84.9685 53.1415 77.2926 53.1415C69.6168 53.1415 63.3944 59.3639 63.3944 67.0398C63.3944 74.7156 69.6168 80.938 77.2926 80.938C84.9653 80.9305 91.1833 74.7125 91.1908 67.0398ZM68.0271 67.0398C68.0271 61.9226 72.1755 57.7743 77.2926 57.7743C82.4098 57.7743 86.5581 61.9226 86.5581 67.0398C86.5581 72.1569 82.4098 76.3052 77.2926 76.3052C72.1755 76.3052 68.0271 72.1569 68.0271 67.0398Z" fill="#B99859"/>
<path d="M80.7672 92.5199C80.7672 90.6011 79.2115 89.0454 77.2927 89.0454C75.3738 89.0454 73.8181 90.6011 73.8181 92.5199C73.8181 94.4388 75.3738 95.9945 77.2927 95.9945C79.2118 95.9945 80.7672 94.4388 80.7672 92.5199ZM76.1345 92.5199C76.1345 91.8803 76.6531 91.3618 77.2927 91.3618C77.9323 91.3618 78.4509 91.8803 78.4509 92.5199C78.4509 93.1596 77.9323 93.6781 77.2927 93.6781C76.6531 93.6781 76.1345 93.1596 76.1345 92.5199Z" fill="#B99859"/>
<path d="M80.7672 41.5597C80.7672 39.6409 79.2115 38.0852 77.2927 38.0852C75.3738 38.0852 73.8181 39.6409 73.8181 41.5597C73.8181 43.4786 75.3738 45.0343 77.2927 45.0343C79.2118 45.0343 80.7672 43.4786 80.7672 41.5597ZM76.1345 41.5597C76.1345 40.9201 76.6531 40.4016 77.2927 40.4016C77.9323 40.4016 78.4509 40.9201 78.4509 41.5597C78.4509 42.1993 77.9323 42.7179 77.2927 42.7179C76.6531 42.7179 76.1345 42.1993 76.1345 41.5597Z" fill="#B99859"/>
</g>
<defs>
<clipPath id="clip0_1_241">
<rect width="118" height="118" fill="white" transform="translate(0 118) rotate(-90)"/>
</clipPath>
</defs>
</svg>
