<svg width="30" height="30" viewBox="0 0 30 30" fill="none" xmlns="http://www.w3.org/2000/svg">
<g clip-path="url(#clip0_1_340)">
<path d="M24.1507 28.4172C23.9164 28.4172 23.6837 28.3479 23.484 28.2125L15.9408 23.0958L11.8951 26.0069C11.5778 26.2351 11.1688 26.2925 10.8003 26.1608C10.4324 26.0288 10.1529 25.724 10.0532 25.346L8.02174 17.6475L0.763233 14.8721C0.306282 14.6973 0.00323057 14.2601 -9.44399e-05 13.7709C-0.00341945 13.2816 0.293615 12.8403 0.74835 12.6594L28.3479 1.67732C28.4731 1.62412 28.6056 1.5934 28.7393 1.58517C28.7871 1.58232 28.835 1.58232 28.8827 1.58501C29.1595 1.60147 29.4313 1.71421 29.6435 1.92226C29.6655 1.94379 29.6864 1.9658 29.7062 1.98876C29.8819 2.18953 29.9785 2.43431 29.9967 2.68369C30.0012 2.74639 30.0009 2.80988 29.9953 2.87337C29.9915 2.91865 29.985 2.96378 29.9758 3.00859L25.3172 27.452C25.2423 27.8447 24.975 28.1734 24.6058 28.3265C24.4593 28.3873 24.3046 28.4172 24.1507 28.4172ZM16.6031 20.6752L23.3223 25.2328L26.9472 6.21311L13.8551 18.8111L16.5714 20.6538C16.5824 20.6606 16.5928 20.6679 16.6031 20.6752ZM11.0097 19.6617L11.9093 23.0706L13.8476 21.6758L11.3095 19.9541C11.1916 19.8743 11.0906 19.7749 11.0097 19.6617ZM4.45479 13.7406L9.43882 15.6462C9.79587 15.7826 10.0654 16.0828 10.1629 16.4524L10.795 18.8478C10.8239 18.5715 10.9492 18.3116 11.1526 18.1157L23.6276 6.11177L4.45479 13.7406Z" fill="url(#paint0_linear_1_340)"/>
</g>
<defs>
<linearGradient id="paint0_linear_1_340" x1="14.9998" y1="1.58301" x2="14.9998" y2="28.4172" gradientUnits="userSpaceOnUse">
<stop stop-color="#FCE3B4"/>
<stop offset="0.463542" stop-color="#B99859"/>
<stop offset="0.838542" stop-color="#897245"/>
</linearGradient>
<clipPath id="clip0_1_340">
<rect width="30" height="30" fill="white"/>
</clipPath>
</defs>
</svg>
